  0
SECTION
  2
HEADER
  9
$ACADVER
  1
AC1014
  9
$ACADMAINTVER
 70
     9
  9
$DWGCODEPAGE
  3
ANSI_1252
  9
$INSBASE
 10
0.0
 20
0.0
 30
0.0
  9
$EXTMIN
 10
1.000000000000000E+20
 20
1.000000000000000E+20
 30
1.000000000000000E+20
  9
$EXTMAX
 10
-1.000000000000000E+20
 20
-1.000000000000000E+20
 30
-1.000000000000000E+20
  9
$LIMMIN
 10
0.0
 20
0.0
  9
$LIMMAX
 10
12.0
 20
9.0
  9
$ORTHOMODE
 70
     0
  9
$REGENMODE
 70
     1
  9
$FILLMODE
 70
     1
  9
$QTEXTMODE
 70
     0
  9
$MIRRTEXT
 70
     1
  9
$DRAGMODE
 70
     2
  9
$LTSCALE
 40
1.0
  9
$OSMODE
 70
    37
  9
$ATTMODE
 70
     1
  9
$TEXTSIZE
 40
0.2
  9
$TRACEWID
 40
0.05
  9
$TEXTSTYLE
  7
STANDARD
  9
$CLAYER
  8
0
  9
$CELTYPE
  6
BYLAYER
  9
$CECOLOR
 62
   256
  9
$CELTSCALE
 40
1.0
  9
$DELOBJ
 70
     1
  9
$DISPSILH
 70
     0
  9
$DIMSCALE
 40
1.0
  9
$DIMASZ
 40
0.18
  9
$DIMEXO
 40
0.0625
  9
$DIMDLI
 40
0.38
  9
$DIMRND
 40
0.0
  9
$DIMDLE
 40
0.0
  9
$DIMEXE
 40
0.18
  9
$DIMTP
 40
0.0
  9
$DIMTM
 40
0.0
  9
$DIMTXT
 40
0.18
  9
$DIMCEN
 40
0.09
  9
$DIMTSZ
 40
0.0
  9
$DIMTOL
 70
     0
  9
$DIMLIM
 70
     0
  9
$DIMTIH
 70
     1
  9
$DIMTOH
 70
     1
  9
$DIMSE1
 70
     0
  9
$DIMSE2
 70
     0
  9
$DIMTAD
 70
     0
  9
$DIMZIN
 70
     0
  9
$DIMBLK
  1

  9
$DIMASO
 70
     1
  9
$DIMSHO
 70
     1
  9
$DIMPOST
  1

  9
$DIMAPOST
  1

  9
$DIMALT
 70
     0
  9
$DIMALTD
 70
     2
  9
$DIMALTF
 40
25.4
  9
$DIMLFAC
 40
1.0
  9
$DIMTOFL
 70
     0
  9
$DIMTVP
 40
0.0
  9
$DIMTIX
 70
     0
  9
$DIMSOXD
 70
     0
  9
$DIMSAH
 70
     0
  9
$DIMBLK1
  1

  9
$DIMBLK2
  1

  9
$DIMSTYLE
  2
STANDARD
  9
$DIMCLRD
 70
     0
  9
$DIMCLRE
 70
     0
  9
$DIMCLRT
 70
     0
  9
$DIMTFAC
 40
1.0
  9
$DIMGAP
 40
0.09
  9
$DIMJUST
 70
     0
  9
$DIMSD1
 70
     0
  9
$DIMSD2
 70
     0
  9
$DIMTOLJ
 70
     1
  9
$DIMTZIN
 70
     0
  9
$DIMALTZ
 70
     0
  9
$DIMALTTZ
 70
     0
  9
$DIMFIT
 70
     3
  9
$DIMUPT
 70
     0
  9
$DIMUNIT
 70
     2
  9
$DIMDEC
 70
     4
  9
$DIMTDEC
 70
     4
  9
$DIMALTU
 70
     2
  9
$DIMALTTD
 70
     2
  9
$DIMTXSTY
  7
STANDARD
  9
$DIMAUNIT
 70
     0
  9
$LUNITS
 70
     2
  9
$LUPREC
 70
     4
  9
$SKETCHINC
 40
0.1
  9
$FILLETRAD
 40
0.5
  9
$AUNITS
 70
     0
  9
$AUPREC
 70
     0
  9
$MENU
  1
.
  9
$ELEVATION
 40
0.0
  9
$PELEVATION
 40
0.0
  9
$THICKNESS
 40
0.0
  9
$LIMCHECK
 70
     0
  9
$CHAMFERA
 40
0.5
  9
$CHAMFERB
 40
0.5
  9
$CHAMFERC
 40
1.0
  9
$CHAMFERD
 40
0.0
  9
$SKPOLY
 70
     0
  9
$TDCREATE
 40
2458308.708565058
  9
$TDUPDATE
 40
2458308.708565069
  9
$TDINDWG
 40
0.0000000116
  9
$TDUSRTIMER
 40
0.0000000116
  9
$USRTIMER
 70
     1
  9
$ANGBASE
 50
0.0
  9
$ANGDIR
 70
     0
  9
$PDMODE
 70
     0
  9
$PDSIZE
 40
0.0
  9
$PLINEWID
 40
0.0
  9
$COORDS
 70
     1
  9
$SPLFRAME
 70
     0
  9
$SPLINETYPE
 70
     6
  9
$SPLINESEGS
 70
     8
  9
$ATTDIA
 70
     0
  9
$ATTREQ
 70
     1
  9
$HANDLING
 70
     1
  9
$HANDSEED
  5
180
  9
$SURFTAB1
 70
     6
  9
$SURFTAB2
 70
     6
  9
$SURFTYPE
 70
     6
  9
$SURFU
 70
     6
  9
$SURFV
 70
     6
  9
$UCSNAME
  2

  9
$UCSORG
 10
0.0
 20
0.0
 30
0.0
  9
$UCSXDIR
 10
1.0
 20
0.0
 30
0.0
  9
$UCSYDIR
 10
0.0
 20
1.0
 30
0.0
  9
$PUCSNAME
  2

  9
$PUCSORG
 10
0.0
 20
0.0
 30
0.0
  9
$PUCSXDIR
 10
1.0
 20
0.0
 30
0.0
  9
$PUCSYDIR
 10
0.0
 20
1.0
 30
0.0
  9
$USERI1
 70
     0
  9
$USERI2
 70
     0
  9
$USERI3
 70
     0
  9
$USERI4
 70
     0
  9
$USERI5
 70
     0
  9
$USERR1
 40
0.0
  9
$USERR2
 40
0.0
  9
$USERR3
 40
0.0
  9
$USERR4
 40
0.0
  9
$USERR5
 40
0.0
  9
$WORLDVIEW
 70
     1
  9
$SHADEDGE
 70
     3
  9
$SHADEDIF
 70
    70
  9
$TILEMODE
 70
     1
  9
$MAXACTVP
 70
    64
  9
$PINSBASE
 10
0.0
 20
0.0
 30
0.0
  9
$PLIMCHECK
 70
     0
  9
$PEXTMIN
 10
1.000000000000000E+20
 20
1.000000000000000E+20
 30
1.000000000000000E+20
  9
$PEXTMAX
 10
-1.000000000000000E+20
 20
-1.000000000000000E+20
 30
-1.000000000000000E+20
  9
$PLIMMIN
 10
0.0
 20
0.0
  9
$PLIMMAX
 10
12.0
 20
9.0
  9
$UNITMODE
 70
     0
  9
$VISRETAIN
 70
     1
  9
$PLINEGEN
 70
     0
  9
$PSLTSCALE
 70
     1
  9
$TREEDEPTH
 70
  3020
  9
$PICKSTYLE
 70
     1
  9
$CMLSTYLE
  2
STANDARD
  9
$CMLJUST
 70
     0
  9
$CMLSCALE
 40
1.0
  9
$PROXYGRAPHICS
 70
     1
  9
$MEASUREMENT
 70
     0
  0
ENDSEC
  0
SECTION
  2
CLASSES
  0
CLASS
  1
ACDBDICTIONARYWDFLT
  2
AcDbDictionaryWithDefault
  3
ObjectDBX Classes
 90
        0
280
     0
281
     0
  0
CLASS
  1
VISUALSTYLE
  2
AcDbVisualStyle
  3
ObjectDBX Classes
 90
     4095
280
     0
281
     0
  0
CLASS
  1
XRECORD
  2
AcDbXrecord
  3
AutoCAD 2000
 90
        0
280
     0
281
     0
  0
CLASS
  1
LWPOLYLINE
  2
AcDbPolyline
  3
AutoCAD 2000
 90
        0
280
     0
281
     1
  0
CLASS
  1
HATCH
  2
AcDbHatch
  3
AutoCAD 2000
 90
        0
280
     0
281
     1
  0
CLASS
  1
ACDBPLACEHOLDER
  2
AcDbPlaceHolder
  3
ObjectDBX Classes
 90
        0
280
     0
281
     0
  0
CLASS
  1
LAYOUT
  2
AcDbLayout
  3
ObjectDBX Classes
 90
        0
280
     0
281
     0
  0
ENDSEC
  0
SECTION
  2
TABLES
  0
TABLE
  2
VPORT
  5
8
330
0
100
AcDbSymbolTable
 70
     1
  0
VPORT
  5
29
330
8
100
AcDbSymbolTableRecord
100
AcDbViewportTableRecord
  2
*ACTIVE
 70
     0
 10
0.0
 20
0.0
 11
1.0
 21
1.0
 12
0.0
 22
0.0
 13
0.0
 23
0.0
 14
0.5
 24
0.5
 15
0.5
 25
0.5
 16
0.0
 26
0.0
 36
1.0
 17
52.03472220921355
 27
104.951388862651
 37
0.0
 40
190.499999952375
 41
1.777777777777778
 42
50.0
 43
0.0
 44
0.0
 50
0.0
 51
0.0
 71
     0
 72
   100
 73
     1
 74
     3
 75
     0
 76
     0
 77
     0
 78
     0
  0
ENDTAB
  0
TABLE
  2
LTYPE
  5
5
330
0
100
AcDbSymbolTable
 70
     1
  0
LTYPE
  5
14
330
5
100
AcDbSymbolTableRecord
100
AcDbLinetypeTableRecord
  2
BYBLOCK
 70
     0
  3

 72
    65
 73
     0
 40
0.0
  0
LTYPE
  5
15
330
5
100
AcDbSymbolTableRecord
100
AcDbLinetypeTableRecord
  2
BYLAYER
 70
     0
  3

 72
    65
 73
     0
 40
0.0
  0
LTYPE
  5
16
330
5
100
AcDbSymbolTableRecord
100
AcDbLinetypeTableRecord
  2
CONTINUOUS
 70
     0
  3
Solid line
 72
    65
 73
     0
 40
0.0
  0
ENDTAB
  0
TABLE
  2
LAYER
  5
2
330
0
100
AcDbSymbolTable
 70
     2
  0
LAYER
  5
10
330
2
100
AcDbSymbolTableRecord
100
AcDbLayerTableRecord
  2
0
 70
     0
 62
     7
  6
CONTINUOUS
  0
LAYER
  5
3B
330
2
100
AcDbSymbolTableRecord
100
AcDbLayerTableRecord
  2
EBENE_1
 70
     0
 62
     7
  6
CONTINUOUS
  0
ENDTAB
  0
TABLE
  2
STYLE
  5
3
330
0
100
AcDbSymbolTable
 70
     1
  0
STYLE
  5
11
330
3
100
AcDbSymbolTableRecord
100
AcDbTextStyleTableRecord
  2
STANDARD
 70
     0
 40
0.0
 41
1.0
 50
0.0
 71
     0
 42
0.2
  3
txt
  4

  0
ENDTAB
  0
TABLE
  2
VIEW
  5
6
330
0
100
AcDbSymbolTable
 70
     0
  0
ENDTAB
  0
TABLE
  2
UCS
  5
7
330
0
100
AcDbSymbolTable
 70
     0
  0
ENDTAB
  0
TABLE
  2
APPID
  5
9
330
0
100
AcDbSymbolTable
 70
     1
  0
APPID
  5
12
330
9
100
AcDbSymbolTableRecord
100
AcDbRegAppTableRecord
  2
ACAD
 70
     0
  0
ENDTAB
  0
TABLE
  2
DIMSTYLE
  5
A
330
0
100
AcDbSymbolTable
 70
     1
  0
DIMSTYLE
105
27
330
A
100
AcDbSymbolTableRecord
100
AcDbDimStyleTableRecord
  2
STANDARD
 70
     0
  3

  4

  5

  6

  7

 40
1.0
 41
0.18
 42
0.0625
 43
0.38
 44
0.18
 45
0.0
 46
0.0
 47
0.0
 48
0.0
140
0.18
141
0.09
142
0.0
143
25.4
144
1.0
145
0.0
146
1.0
147
0.09
 71
     0
 72
     0
 73
     1
 74
     1
 75
     0
 76
     0
 77
     0
 78
     0
170
     0
171
     2
172
     0
173
     0
174
     0
175
     0
176
     0
177
     0
178
     0
270
     2
271
     4
272
     4
273
     2
274
     2
340
11
275
     0
280
     0
281
     0
282
     0
283
     1
284
     0
285
     0
286
     0
287
     3
288
     0
  0
ENDTAB
  0
TABLE
  2
BLOCK_RECORD
  5
1
330
0
100
AcDbSymbolTable
 70
     3
  0
BLOCK_RECORD
  5
1F
330
1
100
AcDbSymbolTableRecord
100
AcDbBlockTableRecord
  2
*MODEL_SPACE
  0
BLOCK_RECORD
  5
1B
330
1
100
AcDbSymbolTableRecord
100
AcDbBlockTableRecord
  2
*PAPER_SPACE
  0
BLOCK_RECORD
  5
3C
330
1
100
AcDbSymbolTableRecord
100
AcDbBlockTableRecord
  2
BLOCK_2
  0
BLOCK_RECORD
  5
40
330
1
100
AcDbSymbolTableRecord
100
AcDbBlockTableRecord
  2
BLOCK_3
  0
ENDTAB
  0
ENDSEC
  0
SECTION
  2
BLOCKS
  0
BLOCK
  5
20
330
1F
100
AcDbEntity
  8
0
100
AcDbBlockBegin
  2
*MODEL_SPACE
 70
     0
 71
     0
 10
0.0
 20
0.0
 30
0.0
  3
*MODEL_SPACE
  1

  0
ENDBLK
  5
21
330
1F
100
AcDbEntity
  8
0
100
AcDbBlockEnd
  0
BLOCK
  5
1C
330
1B
100
AcDbEntity
 67
     1
  8
0
100
AcDbBlockBegin
  2
*PAPER_SPACE
 70
     0
 71
     0
 10
0.0
 20
0.0
 30
0.0
  3
*PAPER_SPACE
  1

  0
ENDBLK
  5
1D
330
1B
100
AcDbEntity
 67
     1
  8
0
100
AcDbBlockEnd
  0
BLOCK
  5
3E
330
3C
100
AcDbEntity
  8
0
100
AcDbBlockBegin
  2
BLOCK_2
 70
     0
 71
     0
 10
0.0
 20
0.0
 30
0.0
  3
BLOCK_2
  1

  0
INSERT
  5
41
330
3C
100
AcDbEntity
  8
EBENE_1
100
AcDbBlockReference
  2
BLOCK_3
 10
0.0
 20
0.0
 30
0.0
  0
ENDBLK
  5
3F
330
3C
100
AcDbEntity
  8
0
100
AcDbBlockEnd
  0
BLOCK
  5
42
330
40
100
AcDbEntity
  8
0
100
AcDbBlockBegin
  2
BLOCK_3
 70
     0
 71
     0
 10
0.0
 20
0.0
 30
0.0
  3
BLOCK_3
  1

  0
POLYLINE
  5
44
330
40
100
AcDbEntity
  8
EBENE_1
 62
   255
100
AcDb2dPolyline
 66
     1
 10
0.0
 20
0.0
 30
0.0
  0
VERTEX
  5
45
330
44
100
AcDbEntity
  8
EBENE_1
 62
   255
100
AcDbVertex
100
AcDb2dVertex
 10
-45.59670002115291
 20
166.8466633697467
 30
0.0
  0
VERTEX
  5
46
330
44
100
AcDbEntity
  8
EBENE_1
 62
   255
100
AcDbVertex
100
AcDb2dVertex
 10
-46.63849689589246
 20
166.8466633697467
 30
0.0
  0
VERTEX
  5
47
330
44
100
AcDbEntity
  8
EBENE_1
 62
   255
100
AcDbVertex
100
AcDb2dVertex
 10
-47.68012151585775
 20
166.8466633697467
 30
0.0
  0
VERTEX
  5
48
330
44
100
AcDbEntity
  8
EBENE_1
 62
   255
100
AcDbVertex
100
AcDb2dVertex
 10
-48.72174613582304
 20
166.8466633697467
 30
0.0
  0
VERTEX
  5
49
330
44
100
AcDbEntity
  8
EBENE_1
 62
   255
100
AcDbVertex
100
AcDb2dVertex
 10
-49.76337075578833
 20
166.8466633697467
 30
0.0
  0
VERTEX
  5
4A
330
44
100
AcDbEntity
  8
EBENE_1
 62
   255
100
AcDbVertex
100
AcDb2dVertex
 10
-50.80516763052788
 20
166.8466633697467
 30
0.0
  0
VERTEX
  5
4B
330
44
100
AcDbEntity
  8
EBENE_1
 62
   255
100
AcDbVertex
100
AcDb2dVertex
 10
-51.84679225049317
 20
166.8466633697467
 30
0.0
  0
VERTEX
  5
4C
330
44
100
AcDbEntity
  8
EBENE_1
 62
   255
100
AcDbVertex
100
AcDb2dVertex
 10
-52.88841687045846
 20
166.8466633697467
 30
0.0
  0
VERTEX
  5
4D
330
44
100
AcDbEntity
  8
EBENE_1
 62
   255
100
AcDbVertex
100
AcDb2dVertex
 10
-53.93004149042374
 20
166.8466633697467
 30
0.0
  0
VERTEX
  5
4E
330
44
100
AcDbEntity
  8
EBENE_1
 62
   255
100
AcDbVertex
100
AcDb2dVertex
 10
-54.97183836516329
 20
166.8466633697467
 30
0.0
  0
VERTEX
  5
4F
330
44
100
AcDbEntity
  8
EBENE_1
 62
   255
100
AcDbVertex
100
AcDb2dVertex
 10
-56.01346298512858
 20
166.8466633697467
 30
0.0
  0
VERTEX
  5
50
330
44
100
AcDbEntity
  8
EBENE_1
 62
   255
100
AcDbVertex
100
AcDb2dVertex
 10
-57.05508760509387
 20
166.8466633697467
 30
0.0
  0
VERTEX
  5
51
330
44
100
AcDbEntity
  8
EBENE_1
 62
   255
100
AcDbVertex
100
AcDb2dVertex
 10
-58.09671222505916
 20
166.8466633697467
 30
0.0
  0
VERTEX
  5
52
330
44
100
AcDbEntity
  8
EBENE_1
 62
   255
100
AcDbVertex
100
AcDb2dVertex
 10
-59.13850909979871
 20
166.8466633697467
 30
0.0
  0
VERTEX
  5
53
330
44
100
AcDbEntity
  8
EBENE_1
 62
   255
100
AcDbVertex
100
AcDb2dVertex
 10
-60.18013371976399
 20
166.8466633697467
 30
0.0
  0
VERTEX
  5
54
330
44
100
AcDbEntity
  8
EBENE_1
 62
   255
100
AcDbVertex
100
AcDb2dVertex
 10
-61.22175833972928
 20
166.8466633697467
 30
0.0
  0
VERTEX
  5
55
330
44
100
AcDbEntity
  8
EBENE_1
 62
   255
100
AcDbVertex
100
AcDb2dVertex
 10
-62.26338295969457
 20
166.8466633697467
 30
0.0
  0
VERTEX
  5
56
330
44
100
AcDbEntity
  8
EBENE_1
 62
   255
100
AcDbVertex
100
AcDb2dVertex
 10
-63.30517983443413
 20
166.8466633697467
 30
0.0
  0
VERTEX
  5
57
330
44
100
AcDbEntity
  8
EBENE_1
 62
   255
100
AcDbVertex
100
AcDb2dVertex
 10
-64.34680445439942
 20
166.8466633697467
 30
0.0
  0
VERTEX
  5
58
330
44
100
AcDbEntity
  8
EBENE_1
 62
   255
100
AcDbVertex
100
AcDb2dVertex
 10
-65.3884290743647
 20
166.8466633697467
 30
0.0
  0
VERTEX
  5
59
330
44
100
AcDbEntity
  8
EBENE_1
 62
   255
100
AcDbVertex
100
AcDb2dVertex
 10
-66.43005369432998
 20
166.8466633697467
 30
0.0
  0
VERTEX
  5
5A
330
44
100
AcDbEntity
  8
EBENE_1
 62
   255
100
AcDbVertex
100
AcDb2dVertex
 10
-67.42723658253556
 20
166.8466633697467
 30
0.0
  0
VERTEX
  5
5B
330
44
100
AcDbEntity
  8
EBENE_1
 62
   255
100
AcDbVertex
100
AcDb2dVertex
 10
-68.46886120250085
 20
166.8466633697467
 30
0.0
  0
VERTEX
  5
5C
330
44
100
AcDbEntity
  8
EBENE_1
 62
   255
100
AcDbVertex
100
AcDb2dVertex
 10
-69.51048582246614
 20
166.8466633697467
 30
0.0
  0
VERTEX
  5
5D
330
44
100
AcDbEntity
  8
EBENE_1
 62
   255
100
AcDbVertex
100
AcDb2dVertex
 10
-70.55228269720568
 20
166.8466633697467
 30
0.0
  0
VERTEX
  5
5E
330
44
100
AcDbEntity
  8
EBENE_1
 62
   255
100
AcDbVertex
100
AcDb2dVertex
 10
-71.59390731717097
 20
166.8466633697467
 30
0.0
  0
VERTEX
  5
5F
330
44
100
AcDbEntity
  8
EBENE_1
 62
   255
100
AcDbVertex
100
AcDb2dVertex
 10
-72.63553193713626
 20
166.8466633697467
 30
0.0
  0
VERTEX
  5
60
330
44
100
AcDbEntity
  8
EBENE_1
 62
   255
100
AcDbVertex
100
AcDb2dVertex
 10
-73.67715655710155
 20
166.8466633697467
 30
0.0
  0
VERTEX
  5
61
330
44
100
AcDbEntity
  8
EBENE_1
 62
   255
100
AcDbVertex
100
AcDb2dVertex
 10
-74.7189534318411
 20
166.8466633697467
 30
0.0
  0
VERTEX
  5
62
330
44
100
AcDbEntity
  8
EBENE_1
 62
   255
100
AcDbVertex
100
AcDb2dVertex
 10
-75.76057805180639
 20
166.8466633697467
 30
0.0
  0
VERTEX
  5
63
330
44
100
AcDbEntity
  8
EBENE_1
 62
   255
100
AcDbVertex
100
AcDb2dVertex
 10
-76.80220267177168
 20
166.8466633697467
 30
0.0
  0
VERTEX
  5
64
330
44
100
AcDbEntity
  8
EBENE_1
 62
   255
100
AcDbVertex
100
AcDb2dVertex
 10
-77.84382729173696
 20
166.8466633697467
 30
0.0
  0
VERTEX
  5
65
330
44
100
AcDbEntity
  8
EBENE_1
 62
   255
100
AcDbVertex
100
AcDb2dVertex
 10
-78.88562416647652
 20
166.8466633697467
 30
0.0
  0
VERTEX
  5
66
330
44
100
AcDbEntity
  8
EBENE_1
 62
   255
100
AcDbVertex
100
AcDb2dVertex
 10
-79.92724878644181
 20
166.8466633697467
 30
0.0
  0
VERTEX
  5
67
330
44
100
AcDbEntity
  8
EBENE_1
 62
   255
100
AcDbVertex
100
AcDb2dVertex
 10
-80.96887340640708
 20
166.8466633697467
 30
0.0
  0
VERTEX
  5
68
330
44
100
AcDbEntity
  8
EBENE_1
 62
   255
100
AcDbVertex
100
AcDb2dVertex
 10
-82.01049802637237
 20
166.8466633697467
 30
0.0
  0
VERTEX
  5
69
330
44
100
AcDbEntity
  8
EBENE_1
 62
   255
100
AcDbVertex
100
AcDb2dVertex
 10
-83.05229490111194
 20
166.8466633697467
 30
0.0
  0
VERTEX
  5
6A
330
44
100
AcDbEntity
  8
EBENE_1
 62
   255
100
AcDbVertex
100
AcDb2dVertex
 10
-84.09391952107723
 20
166.8466633697467
 30
0.0
  0
VERTEX
  5
6B
330
44
100
AcDbEntity
  8
EBENE_1
 62
   255
100
AcDbVertex
100
AcDb2dVertex
 10
-85.1355441410425
 20
166.8466633697467
 30
0.0
  0
VERTEX
  5
6C
330
44
100
AcDbEntity
  8
EBENE_1
 62
   255
100
AcDbVertex
100
AcDb2dVertex
 10
-86.17716876100779
 20
166.8466633697467
 30
0.0
  0
VERTEX
  5
6D
330
44
100
AcDbEntity
  8
EBENE_1
 62
   255
100
AcDbVertex
100
AcDb2dVertex
 10
-87.21896563574735
 20
166.8466633697467
 30
0.0
  0
VERTEX
  5
6E
330
44
100
AcDbEntity
  8
EBENE_1
 62
   255
100
AcDbVertex
100
AcDb2dVertex
 10
-87.4272216578307
 20
166.8466633697467
 30
0.0
  0
VERTEX
  5
6F
330
44
100
AcDbEntity
  8
EBENE_1
 62
   255
100
AcDbVertex
100
AcDb2dVertex
 10
-87.4272216578307
 20
165.8050387497814
 30
0.0
  0
VERTEX
  5
70
330
44
100
AcDbEntity
  8
EBENE_1
 62
   255
100
AcDbVertex
100
AcDb2dVertex
 10
-87.4272216578307
 20
164.7634141298161
 30
0.0
  0
VERTEX
  5
71
330
44
100
AcDbEntity
  8
EBENE_1
 62
   255
100
AcDbVertex
100
AcDb2dVertex
 10
-87.4272216578307
 20
163.7216172550766
 30
0.0
  0
VERTEX
  5
72
330
44
100
AcDbEntity
  8
EBENE_1
 62
   255
100
AcDbVertex
100
AcDb2dVertex
 10
-87.4272216578307
 20
162.6799926351113
 30
0.0
  0
VERTEX
  5
73
330
44
100
AcDbEntity
  8
EBENE_1
 62
   255
100
AcDbVertex
100
AcDb2dVertex
 10
-87.4272216578307
 20
161.638368015146
 30
0.0
  0
VERTEX
  5
74
330
44
100
AcDbEntity
  8
EBENE_1
 62
   255
100
AcDbVertex
100
AcDb2dVertex
 10
-87.4272216578307
 20
160.5967433951807
 30
0.0
  0
VERTEX
  5
75
330
44
100
AcDbEntity
  8
EBENE_1
 62
   255
100
AcDbVertex
100
AcDb2dVertex
 10
-87.4272216578307
 20
159.5549465204411
 30
0.0
  0
VERTEX
  5
76
330
44
100
AcDbEntity
  8
EBENE_1
 62
   255
100
AcDbVertex
100
AcDb2dVertex
 10
-87.4272216578307
 20
158.5133219004758
 30
0.0
  0
VERTEX
  5
77
330
44
100
AcDbEntity
  8
EBENE_1
 62
   255
100
AcDbVertex
100
AcDb2dVertex
 10
-87.4272216578307
 20
157.4716972805106
 30
0.0
  0
VERTEX
  5
78
330
44
100
AcDbEntity
  8
EBENE_1
 62
   255
100
AcDbVertex
100
AcDb2dVertex
 10
-87.4272216578307
 20
157.3275200344528
 30
0.0
  0
VERTEX
  5
79
330
44
100
AcDbEntity
  8
EBENE_1
 62
   255
100
AcDbVertex
100
AcDb2dVertex
 10
-87.4272216578307
 20
156.2858954144876
 30
0.0
  0
VERTEX
  5
7A
330
44
100
AcDbEntity
  8
EBENE_1
 62
   255
100
AcDbVertex
100
AcDb2dVertex
 10
-87.4272216578307
 20
155.2442707945223
 30
0.0
  0
VERTEX
  5
7B
330
44
100
AcDbEntity
  8
EBENE_1
 62
   255
100
AcDbVertex
100
AcDb2dVertex
 10
-87.4272216578307
 20
154.202646174557
 30
0.0
  0
VERTEX
  5
7C
330
44
100
AcDbEntity
  8
EBENE_1
 62
   255
100
AcDbVertex
100
AcDb2dVertex
 10
-87.4272216578307
 20
153.1608492998174
 30
0.0
  0
VERTEX
  5
7D
330
44
100
AcDbEntity
  8
EBENE_1
 62
   255
100
AcDbVertex
100
AcDb2dVertex
 10
-87.4272216578307
 20
152.1192246798522
 30
0.0
  0
VERTEX
  5
7E
330
44
100
AcDbEntity
  8
EBENE_1
 62
   255
100
AcDbVertex
100
AcDb2dVertex
 10
-87.4272216578307
 20
151.0776000598869
 30
0.0
  0
VERTEX
  5
7F
330
44
100
AcDbEntity
  8
EBENE_1
 62
   255
100
AcDbVertex
100
AcDb2dVertex
 10
-87.4272216578307
 20
150.0359754399216
 30
0.0
  0
VERTEX
  5
80
330
44
100
AcDbEntity
  8
EBENE_1
 62
   255
100
AcDbVertex
100
AcDb2dVertex
 10
-87.4272216578307
 20
148.994178565182
 30
0.0
  0
VERTEX
  5
81
330
44
100
AcDbEntity
  8
EBENE_1
 62
   255
100
AcDbVertex
100
AcDb2dVertex
 10
-87.4272216578307
 20
147.9525539452167
 30
0.0
  0
VERTEX
  5
82
330
44
100
AcDbEntity
  8
EBENE_1
 62
   255
100
AcDbVertex
100
AcDb2dVertex
 10
-87.4272216578307
 20
146.9109293252514
 30
0.0
  0
VERTEX
  5
83
330
44
100
AcDbEntity
  8
EBENE_1
 62
   255
100
AcDbVertex
100
AcDb2dVertex
 10
-87.4272216578307
 20
145.8693047052861
 30
0.0
  0
VERTEX
  5
84
330
44
100
AcDbEntity
  8
EBENE_1
 62
   255
100
AcDbVertex
100
AcDb2dVertex
 10
-87.4272216578307
 20
144.8276800853209
 30
0.0
  0
VERTEX
  5
85
330
44
100
AcDbEntity
  8
EBENE_1
 62
   255
100
AcDbVertex
100
AcDb2dVertex
 10
-87.4272216578307
 20
143.7858832105813
 30
0.0
  0
VERTEX
  5
86
330
44
100
AcDbEntity
  8
EBENE_1
 62
   255
100
AcDbVertex
100
AcDb2dVertex
 10
-87.4272216578307
 20
142.744258590616
 30
0.0
  0
VERTEX
  5
87
330
44
100
AcDbEntity
  8
EBENE_1
 62
   255
100
AcDbVertex
100
AcDb2dVertex
 10
-87.4272216578307
 20
141.5901516030573
 30
0.0
  0
VERTEX
  5
88
330
44
100
AcDbEntity
  8
EBENE_1
 62
   255
100
AcDbVertex
100
AcDb2dVertex
 10
-87.4272216578307
 20
140.548526983092
 30
0.0
  0
VERTEX
  5
89
330
44
100
AcDbEntity
  8
EBENE_1
 62
   255
100
AcDbVertex
100
AcDb2dVertex
 10
-87.4272216578307
 20
139.5067301083525
 30
0.0
  0
VERTEX
  5
8A
330
44
100
AcDbEntity
  8
EBENE_1
 62
   255
100
AcDbVertex
100
AcDb2dVertex
 10
-87.4272216578307
 20
138.4651054883872
 30
0.0
  0
VERTEX
  5
8B
330
44
100
AcDbEntity
  8
EBENE_1
 62
   255
100
AcDbVertex
100
AcDb2dVertex
 10
-87.4272216578307
 20
137.4234808684219
 30
0.0
  0
VERTEX
  5
8C
330
44
100
AcDbEntity
  8
EBENE_1
 62
   255
100
AcDbVertex
100
AcDb2dVertex
 10
-87.4272216578307
 20
136.3818562484566
 30
0.0
  0
VERTEX
  5
8D
330
44
100
AcDbEntity
  8
EBENE_1
 62
   255
100
AcDbVertex
100
AcDb2dVertex
 10
-87.4272216578307
 20
135.3400593737171
 30
0.0
  0
VERTEX
  5
8E
330
44
100
AcDbEntity
  8
EBENE_1
 62
   255
100
AcDbVertex
100
AcDb2dVertex
 10
-87.4272216578307
 20
134.2984347537518
 30
0.0
  0
VERTEX
  5
8F
330
44
100
AcDbEntity
  8
EBENE_1
 62
   255
100
AcDbVertex
100
AcDb2dVertex
 10
-87.4272216578307
 20
133.2568101337865
 30
0.0
  0
VERTEX
  5
90
330
44
100
AcDbEntity
  8
EBENE_1
 62
   255
100
AcDbVertex
100
AcDb2dVertex
 10
-87.4272216578307
 20
132.2151855138212
 30
0.0
  0
VERTEX
  5
91
330
44
100
AcDbEntity
  8
EBENE_1
 62
   255
100
AcDbVertex
100
AcDb2dVertex
 10
-87.4272216578307
 20
131.8467325516737
 30
0.0
  0
VERTEX
  5
92
330
44
100
AcDbEntity
  8
EBENE_1
 62
   255
100
AcDbVertex
100
AcDb2dVertex
 10
-86.38559703786541
 20
131.8467325516737
 30
0.0
  0
VERTEX
  5
93
330
44
100
AcDbEntity
  8
EBENE_1
 62
   255
100
AcDbVertex
100
AcDb2dVertex
 10
-85.34397241790012
 20
131.8467325516737
 30
0.0
  0
VERTEX
  5
94
330
44
100
AcDbEntity
  8
EBENE_1
 62
   255
100
AcDbVertex
100
AcDb2dVertex
 10
-84.30217554316057
 20
131.8467325516737
 30
0.0
  0
VERTEX
  5
95
330
44
100
AcDbEntity
  8
EBENE_1
 62
   255
100
AcDbVertex
100
AcDb2dVertex
 10
-83.26055092319528
 20
131.8467325516737
 30
0.0
  0
VERTEX
  5
96
330
44
100
AcDbEntity
  8
EBENE_1
 62
   255
100
AcDbVertex
100
AcDb2dVertex
 10
-82.21892630322999
 20
131.8467325516737
 30
0.0
  0
VERTEX
  5
97
330
44
100
AcDbEntity
  8
EBENE_1
 62
   255
100
AcDbVertex
100
AcDb2dVertex
 10
-81.1773016832647
 20
131.8467325516737
 30
0.0
  0
VERTEX
  5
98
330
44
100
AcDbEntity
  8
EBENE_1
 62
   255
100
AcDbVertex
100
AcDb2dVertex
 10
-80.13550480852516
 20
131.8467325516737
 30
0.0
  0
VERTEX
  5
99
330
44
100
AcDbEntity
  8
EBENE_1
 62
   255
100
AcDbVertex
100
AcDb2dVertex
 10
-79.09388018855987
 20
131.8467325516737
 30
0.0
  0
VERTEX
  5
9A
330
44
100
AcDbEntity
  8
EBENE_1
 62
   255
100
AcDbVertex
100
AcDb2dVertex
 10
-78.05225556859457
 20
131.8467325516737
 30
0.0
  0
VERTEX
  5
9B
330
44
100
AcDbEntity
  8
EBENE_1
 62
   255
100
AcDbVertex
100
AcDb2dVertex
 10
-77.01063094862928
 20
131.8467325516737
 30
0.0
  0
VERTEX
  5
9C
330
44
100
AcDbEntity
  8
EBENE_1
 62
   255
100
AcDbVertex
100
AcDb2dVertex
 10
-75.96883407388974
 20
131.8467325516737
 30
0.0
  0
VERTEX
  5
9D
330
44
100
AcDbEntity
  8
EBENE_1
 62
   255
100
AcDbVertex
100
AcDb2dVertex
 10
-74.92720945392445
 20
131.8467325516737
 30
0.0
  0
VERTEX
  5
9E
330
44
100
AcDbEntity
  8
EBENE_1
 62
   255
100
AcDbVertex
100
AcDb2dVertex
 10
-73.88558483395916
 20
131.8467325516737
 30
0.0
  0
VERTEX
  5
9F
330
44
100
AcDbEntity
  8
EBENE_1
 62
   255
100
AcDbVertex
100
AcDb2dVertex
 10
-72.84396021399388
 20
131.8467325516737
 30
0.0
  0
VERTEX
  5
A0
330
44
100
AcDbEntity
  8
EBENE_1
 62
   255
100
AcDbVertex
100
AcDb2dVertex
 10
-71.80216333925432
 20
131.8467325516737
 30
0.0
  0
VERTEX
  5
A1
330
44
100
AcDbEntity
  8
EBENE_1
 62
   255
100
AcDbVertex
100
AcDb2dVertex
 10
-70.76053871928903
 20
131.8467325516737
 30
0.0
  0
VERTEX
  5
A2
330
44
100
AcDbEntity
  8
EBENE_1
 62
   255
100
AcDbVertex
100
AcDb2dVertex
 10
-69.71891409932374
 20
131.8467325516737
 30
0.0
  0
VERTEX
  5
A3
330
44
100
AcDbEntity
  8
EBENE_1
 62
   255
100
AcDbVertex
100
AcDb2dVertex
 10
-68.67728947935846
 20
131.8467325516737
 30
0.0
  0
VERTEX
  5
A4
330
44
100
AcDbEntity
  8
EBENE_1
 62
   255
100
AcDbVertex
100
AcDb2dVertex
 10
-67.6354926046189
 20
131.8467325516737
 30
0.0
  0
VERTEX
  5
A5
330
44
100
AcDbEntity
  8
EBENE_1
 62
   255
100
AcDbVertex
100
AcDb2dVertex
 10
-67.42723658253556
 20
131.8467325516737
 30
0.0
  0
VERTEX
  5
A6
330
44
100
AcDbEntity
  8
EBENE_1
 62
   255
100
AcDbVertex
100
AcDb2dVertex
 10
-66.38561196257027
 20
131.8467325516737
 30
0.0
  0
VERTEX
  5
A7
330
44
100
AcDbEntity
  8
EBENE_1
 62
   255
100
AcDbVertex
100
AcDb2dVertex
 10
-65.34381508783072
 20
131.8467325516737
 30
0.0
  0
VERTEX
  5
A8
330
44
100
AcDbEntity
  8
EBENE_1
 62
   255
100
AcDbVertex
100
AcDb2dVertex
 10
-64.30219046786543
 20
131.8467325516737
 30
0.0
  0
VERTEX
  5
A9
330
44
100
AcDbEntity
  8
EBENE_1
 62
   255
100
AcDbVertex
100
AcDb2dVertex
 10
-63.26056584790014
 20
131.8467325516737
 30
0.0
  0
VERTEX
  5
AA
330
44
100
AcDbEntity
  8
EBENE_1
 62
   255
100
AcDbVertex
100
AcDb2dVertex
 10
-62.21894122793485
 20
131.8467325516737
 30
0.0
  0
VERTEX
  5
AB
330
44
100
AcDbEntity
  8
EBENE_1
 62
   255
100
AcDbVertex
100
AcDb2dVertex
 10
-61.1771443531953
 20
131.8467325516737
 30
0.0
  0
VERTEX
  5
AC
330
44
100
AcDbEntity
  8
EBENE_1
 62
   255
100
AcDbVertex
100
AcDb2dVertex
 10
-60.13551973323001
 20
131.8467325516737
 30
0.0
  0
VERTEX
  5
AD
330
44
100
AcDbEntity
  8
EBENE_1
 62
   255
100
AcDbVertex
100
AcDb2dVertex
 10
-59.09389511326472
 20
131.8467325516737
 30
0.0
  0
VERTEX
  5
AE
330
44
100
AcDbEntity
  8
EBENE_1
 62
   255
100
AcDbVertex
100
AcDb2dVertex
 10
-58.05227049329943
 20
131.8467325516737
 30
0.0
  0
VERTEX
  5
AF
330
44
100
AcDbEntity
  8
EBENE_1
 62
   255
100
AcDbVertex
100
AcDb2dVertex
 10
-57.01047361855989
 20
131.8467325516737
 30
0.0
  0
VERTEX
  5
B0
330
44
100
AcDbEntity
  8
EBENE_1
 62
   255
100
AcDbVertex
100
AcDb2dVertex
 10
-55.96884899859459
 20
131.8467325516737
 30
0.0
  0
VERTEX
  5
B1
330
44
100
AcDbEntity
  8
EBENE_1
 62
   255
100
AcDbVertex
100
AcDb2dVertex
 10
-54.9272243786293
 20
131.8467325516737
 30
0.0
  0
VERTEX
  5
B2
330
44
100
AcDbEntity
  8
EBENE_1
 62
   255
100
AcDbVertex
100
AcDb2dVertex
 10
-53.88559975866402
 20
131.8467325516737
 30
0.0
  0
VERTEX
  5
B3
330
44
100
AcDbEntity
  8
EBENE_1
 62
   255
100
AcDbVertex
100
AcDb2dVertex
 10
-52.84397513869873
 20
131.8467325516737
 30
0.0
  0
VERTEX
  5
B4
330
44
100
AcDbEntity
  8
EBENE_1
 62
   255
100
AcDbVertex
100
AcDb2dVertex
 10
-51.80217826395918
 20
131.8467325516737
 30
0.0
  0
VERTEX
  5
B5
330
44
100
AcDbEntity
  8
EBENE_1
 62
   255
100
AcDbVertex
100
AcDb2dVertex
 10
-50.76055364399389
 20
131.8467325516737
 30
0.0
  0
VERTEX
  5
B6
330
44
100
AcDbEntity
  8
EBENE_1
 62
   255
100
AcDbVertex
100
AcDb2dVertex
 10
-49.7189290240286
 20
131.8467325516737
 30
0.0
  0
VERTEX
  5
B7
330
44
100
AcDbEntity
  8
EBENE_1
 62
   255
100
AcDbVertex
100
AcDb2dVertex
 10
-48.67713214928905
 20
131.8467325516737
 30
0.0
  0
VERTEX
  5
B8
330
44
100
AcDbEntity
  8
EBENE_1
 62
   255
100
AcDbVertex
100
AcDb2dVertex
 10
-47.63550752932377
 20
131.8467325516737
 30
0.0
  0
VERTEX
  5
B9
330
44
100
AcDbEntity
  8
EBENE_1
 62
   255
100
AcDbVertex
100
AcDb2dVertex
 10
-46.59388290935848
 20
131.8467325516737
 30
0.0
  0
VERTEX
  5
BA
330
44
100
AcDbEntity
  8
EBENE_1
 62
   255
100
AcDbVertex
100
AcDb2dVertex
 10
-45.59670002115291
 20
131.8467325516737
 30
0.0
  0
VERTEX
  5
BB
330
44
100
AcDbEntity
  8
EBENE_1
 62
   255
100
AcDbVertex
100
AcDb2dVertex
 10
-44.55507540118762
 20
131.8467325516737
 30
0.0
  0
VERTEX
  5
BC
330
44
100
AcDbEntity
  8
EBENE_1
 62
   255
100
AcDbVertex
100
AcDb2dVertex
 10
-43.51345078122233
 20
131.8467325516737
 30
0.0
  0
VERTEX
  5
BD
330
44
100
AcDbEntity
  8
EBENE_1
 62
   255
100
AcDbVertex
100
AcDb2dVertex
 10
-42.47182616125705
 20
131.8467325516737
 30
0.0
  0
VERTEX
  5
BE
330
44
100
AcDbEntity
  8
EBENE_1
 62
   255
100
AcDbVertex
100
AcDb2dVertex
 10
-41.4300292865175
 20
131.8467325516737
 30
0.0
  0
VERTEX
  5
BF
330
44
100
AcDbEntity
  8
EBENE_1
 62
   255
100
AcDbVertex
100
AcDb2dVertex
 10
-40.3884046665522
 20
131.8467325516737
 30
0.0
  0
VERTEX
  5
C0
330
44
100
AcDbEntity
  8
EBENE_1
 62
   255
100
AcDbVertex
100
AcDb2dVertex
 10
-39.34678004658691
 20
131.8467325516737
 30
0.0
  0
VERTEX
  5
C1
330
44
100
AcDbEntity
  8
EBENE_1
 62
   255
100
AcDbVertex
100
AcDb2dVertex
 10
-38.30515542662163
 20
131.8467325516737
 30
0.0
  0
VERTEX
  5
C2
330
44
100
AcDbEntity
  8
EBENE_1
 62
   255
100
AcDbVertex
100
AcDb2dVertex
 10
-37.26353080665634
 20
131.8467325516737
 30
0.0
  0
VERTEX
  5
C3
330
44
100
AcDbEntity
  8
EBENE_1
 62
   255
100
AcDbVertex
100
AcDb2dVertex
 10
-36.22173393191679
 20
131.8467325516737
 30
0.0
  0
VERTEX
  5
C4
330
44
100
AcDbEntity
  8
EBENE_1
 62
   255
100
AcDbVertex
100
AcDb2dVertex
 10
-35.1801093119515
 20
131.8467325516737
 30
0.0
  0
VERTEX
  5
C5
330
44
100
AcDbEntity
  8
EBENE_1
 62
   255
100
AcDbVertex
100
AcDb2dVertex
 10
-34.13848469198621
 20
131.8467325516737
 30
0.0
  0
VERTEX
  5
C6
330
44
100
AcDbEntity
  8
EBENE_1
 62
   255
100
AcDbVertex
100
AcDb2dVertex
 10
-33.09668781724666
 20
131.8467325516737
 30
0.0
  0
VERTEX
  5
C7
330
44
100
AcDbEntity
  8
EBENE_1
 62
   255
100
AcDbVertex
100
AcDb2dVertex
 10
-32.05506319728138
 20
131.8467325516737
 30
0.0
  0
VERTEX
  5
C8
330
44
100
AcDbEntity
  8
EBENE_1
 62
   255
100
AcDbVertex
100
AcDb2dVertex
 10
-31.01343857731609
 20
131.8467325516737
 30
0.0
  0
VERTEX
  5
C9
330
44
100
AcDbEntity
  8
EBENE_1
 62
   255
100
AcDbVertex
100
AcDb2dVertex
 10
-29.9718139573508
 20
131.8467325516737
 30
0.0
  0
VERTEX
  5
CA
330
44
100
AcDbEntity
  8
EBENE_1
 62
   255
100
AcDbVertex
100
AcDb2dVertex
 10
-28.93018933738551
 20
131.8467325516737
 30
0.0
  0
VERTEX
  5
CB
330
44
100
AcDbEntity
  8
EBENE_1
 62
   255
100
AcDbVertex
100
AcDb2dVertex
 10
-27.88839246264596
 20
131.8467325516737
 30
0.0
  0
VERTEX
  5
CC
330
44
100
AcDbEntity
  8
EBENE_1
 62
   255
100
AcDbVertex
100
AcDb2dVertex
 10
-26.84676784268067
 20
131.8467325516737
 30
0.0
  0
VERTEX
  5
CD
330
44
100
AcDbEntity
  8
EBENE_1
 62
   255
100
AcDbVertex
100
AcDb2dVertex
 10
-25.80514322271538
 20
131.8467325516737
 30
0.0
  0
VERTEX
  5
CE
330
44
100
AcDbEntity
  8
EBENE_1
 62
   255
100
AcDbVertex
100
AcDb2dVertex
 10
-24.76351860275009
 20
131.8467325516737
 30
0.0
  0
VERTEX
  5
CF
330
44
100
AcDbEntity
  8
EBENE_1
 62
   255
100
AcDbVertex
100
AcDb2dVertex
 10
-23.72172172801054
 20
131.8467325516737
 30
0.0
  0
VERTEX
  5
D0
330
44
100
AcDbEntity
  8
EBENE_1
 62
   255
100
AcDbVertex
100
AcDb2dVertex
 10
-22.68009710804526
 20
131.8467325516737
 30
0.0
  0
VERTEX
  5
D1
330
44
100
AcDbEntity
  8
EBENE_1
 62
   255
100
AcDbVertex
100
AcDb2dVertex
 10
-21.63847248807997
 20
131.8467325516737
 30
0.0
  0
VERTEX
  5
D2
330
44
100
AcDbEntity
  8
EBENE_1
 62
   255
100
AcDbVertex
100
AcDb2dVertex
 10
-20.59684786811468
 20
131.8467325516737
 30
0.0
  0
VERTEX
  5
D3
330
44
100
AcDbEntity
  8
EBENE_1
 62
   255
100
AcDbVertex
100
AcDb2dVertex
 10
-19.55505099337513
 20
131.8467325516737
 30
0.0
  0
VERTEX
  5
D4
330
44
100
AcDbEntity
  8
EBENE_1
 62
   255
100
AcDbVertex
100
AcDb2dVertex
 10
-18.51342637340984
 20
131.8467325516737
 30
0.0
  0
VERTEX
  5
D5
330
44
100
AcDbEntity
  8
EBENE_1
 62
   255
100
AcDbVertex
100
AcDb2dVertex
 10
-17.47180175344455
 20
131.8467325516737
 30
0.0
  0
VERTEX
  5
D6
330
44
100
AcDbEntity
  8
EBENE_1
 62
   255
100
AcDbVertex
100
AcDb2dVertex
 10
-16.43017713347926
 20
131.8467325516737
 30
0.0
  0
VERTEX
  5
D7
330
44
100
AcDbEntity
  8
EBENE_1
 62
   255
100
AcDbVertex
100
AcDb2dVertex
 10
-15.38838025873971
 20
131.8467325516737
 30
0.0
  0
VERTEX
  5
D8
330
44
100
AcDbEntity
  8
EBENE_1
 62
   255
100
AcDbVertex
100
AcDb2dVertex
 10
-14.34675563877442
 20
131.8467325516737
 30
0.0
  0
VERTEX
  5
D9
330
44
100
AcDbEntity
  8
EBENE_1
 62
   255
100
AcDbVertex
100
AcDb2dVertex
 10
-13.30513101880913
 20
131.8467325516737
 30
0.0
  0
VERTEX
  5
DA
330
44
100
AcDbEntity
  8
EBENE_1
 62
   255
100
AcDbVertex
100
AcDb2dVertex
 10
-12.08866780296742
 20
131.8467325516737
 30
0.0
  0
VERTEX
  5
DB
330
44
100
AcDbEntity
  8
EBENE_1
 62
   255
100
AcDbVertex
100
AcDb2dVertex
 10
-12.08866780296742
 20
132.888357171639
 30
0.0
  0
VERTEX
  5
DC
330
44
100
AcDbEntity
  8
EBENE_1
 62
   255
100
AcDbVertex
100
AcDb2dVertex
 10
-12.08866780296742
 20
133.9299817916043
 30
0.0
  0
VERTEX
  5
DD
330
44
100
AcDbEntity
  8
EBENE_1
 62
   255
100
AcDbVertex
100
AcDb2dVertex
 10
-12.08866780296742
 20
134.9716064115696
 30
0.0
  0
VERTEX
  5
DE
330
44
100
AcDbEntity
  8
EBENE_1
 62
   255
100
AcDbVertex
100
AcDb2dVertex
 10
-12.08866780296742
 20
136.0134032863091
 30
0.0
  0
VERTEX
  5
DF
330
44
100
AcDbEntity
  8
EBENE_1
 62
   255
100
AcDbVertex
100
AcDb2dVertex
 10
-12.08866780296742
 20
137.0550279062744
 30
0.0
  0
VERTEX
  5
E0
330
44
100
AcDbEntity
  8
EBENE_1
 62
   255
100
AcDbVertex
100
AcDb2dVertex
 10
-12.08866780296742
 20
138.0966525262397
 30
0.0
  0
VERTEX
  5
E1
330
44
100
AcDbEntity
  8
EBENE_1
 62
   255
100
AcDbVertex
100
AcDb2dVertex
 10
-12.08866780296742
 20
139.138277146205
 30
0.0
  0
VERTEX
  5
E2
330
44
100
AcDbEntity
  8
EBENE_1
 62
   255
100
AcDbVertex
100
AcDb2dVertex
 10
-12.08866780296742
 20
140.1800740209446
 30
0.0
  0
VERTEX
  5
E3
330
44
100
AcDbEntity
  8
EBENE_1
 62
   255
100
AcDbVertex
100
AcDb2dVertex
 10
-12.08866780296742
 20
141.2216986409099
 30
0.0
  0
VERTEX
  5
E4
330
44
100
AcDbEntity
  8
EBENE_1
 62
   255
100
AcDbVertex
100
AcDb2dVertex
 10
-12.08866780296742
 20
141.5899793482831
 30
0.0
  0
VERTEX
  5
E5
330
44
100
AcDbEntity
  8
EBENE_1
 62
   255
100
AcDbVertex
100
AcDb2dVertex
 10
-13.1302924229327
 20
141.5899793482831
 30
0.0
  0
VERTEX
  5
E6
330
44
100
AcDbEntity
  8
EBENE_1
 62
   255
100
AcDbVertex
100
AcDb2dVertex
 10
-14.17208929767226
 20
141.5899793482831
 30
0.0
  0
VERTEX
  5
E7
330
44
100
AcDbEntity
  8
EBENE_1
 62
   255
100
AcDbVertex
100
AcDb2dVertex
 10
-15.21371391763754
 20
141.5899793482831
 30
0.0
  0
VERTEX
  5
E8
330
44
100
AcDbEntity
  8
EBENE_1
 62
   255
100
AcDbVertex
100
AcDb2dVertex
 10
-16.25533853760283
 20
141.5899793482831
 30
0.0
  0
VERTEX
  5
E9
330
44
100
AcDbEntity
  8
EBENE_1
 62
   255
100
AcDbVertex
100
AcDb2dVertex
 10
-17.29696315756812
 20
141.5899793482831
 30
0.0
  0
VERTEX
  5
EA
330
44
100
AcDbEntity
  8
EBENE_1
 62
   255
100
AcDbVertex
100
AcDb2dVertex
 10
-18.33858777753341
 20
141.5899793482831
 30
0.0
  0
VERTEX
  5
EB
330
44
100
AcDbEntity
  8
EBENE_1
 62
   255
100
AcDbVertex
100
AcDb2dVertex
 10
-19.38038465227296
 20
141.5899793482831
 30
0.0
  0
VERTEX
  5
EC
330
44
100
AcDbEntity
  8
EBENE_1
 62
   255
100
AcDbVertex
100
AcDb2dVertex
 10
-20.42200927223825
 20
141.5899793482831
 30
0.0
  0
VERTEX
  5
ED
330
44
100
AcDbEntity
  8
EBENE_1
 62
   255
100
AcDbVertex
100
AcDb2dVertex
 10
-21.46363389220354
 20
141.5899793482831
 30
0.0
  0
VERTEX
  5
EE
330
44
100
AcDbEntity
  8
EBENE_1
 62
   255
100
AcDbVertex
100
AcDb2dVertex
 10
-22.50543076694309
 20
141.5899793482831
 30
0.0
  0
VERTEX
  5
EF
330
44
100
AcDbEntity
  8
EBENE_1
 62
   255
100
AcDbVertex
100
AcDb2dVertex
 10
-23.54705538690838
 20
141.5899793482831
 30
0.0
  0
VERTEX
  5
F0
330
44
100
AcDbEntity
  8
EBENE_1
 62
   255
100
AcDbVertex
100
AcDb2dVertex
 10
-24.58868000687367
 20
141.5899793482831
 30
0.0
  0
VERTEX
  5
F1
330
44
100
AcDbEntity
  8
EBENE_1
 62
   255
100
AcDbVertex
100
AcDb2dVertex
 10
-25.63030462683895
 20
141.5899793482831
 30
0.0
  0
VERTEX
  5
F2
330
44
100
AcDbEntity
  8
EBENE_1
 62
   255
100
AcDbVertex
100
AcDb2dVertex
 10
-26.67192924680424
 20
141.5899793482831
 30
0.0
  0
VERTEX
  5
F3
330
44
100
AcDbEntity
  8
EBENE_1
 62
   255
100
AcDbVertex
100
AcDb2dVertex
 10
-27.71372612154379
 20
141.5899793482831
 30
0.0
  0
VERTEX
  5
F4
330
44
100
AcDbEntity
  8
EBENE_1
 62
   255
100
AcDbVertex
100
AcDb2dVertex
 10
-28.75535074150908
 20
141.5899793482831
 30
0.0
  0
VERTEX
  5
F5
330
44
100
AcDbEntity
  8
EBENE_1
 62
   255
100
AcDbVertex
100
AcDb2dVertex
 10
-29.79697536147437
 20
141.5899793482831
 30
0.0
  0
VERTEX
  5
F6
330
44
100
AcDbEntity
  8
EBENE_1
 62
   255
100
AcDbVertex
100
AcDb2dVertex
 10
-30.83859998143966
 20
141.5899793482831
 30
0.0
  0
VERTEX
  5
F7
330
44
100
AcDbEntity
  8
EBENE_1
 62
   255
100
AcDbVertex
100
AcDb2dVertex
 10
-31.88039685617921
 20
141.5899793482831
 30
0.0
  0
VERTEX
  5
F8
330
44
100
AcDbEntity
  8
EBENE_1
 62
   255
100
AcDbVertex
100
AcDb2dVertex
 10
-32.92202147614449
 20
141.5899793482831
 30
0.0
  0
VERTEX
  5
F9
330
44
100
AcDbEntity
  8
EBENE_1
 62
   255
100
AcDbVertex
100
AcDb2dVertex
 10
-33.96364609610978
 20
141.5899793482831
 30
0.0
  0
VERTEX
  5
FA
330
44
100
AcDbEntity
  8
EBENE_1
 62
   255
100
AcDbVertex
100
AcDb2dVertex
 10
-35.00527071607507
 20
141.5899793482831
 30
0.0
  0
VERTEX
  5
FB
330
44
100
AcDbEntity
  8
EBENE_1
 62
   255
100
AcDbVertex
100
AcDb2dVertex
 10
-36.04706759081462
 20
141.5899793482831
 30
0.0
  0
VERTEX
  5
FC
330
44
100
AcDbEntity
  8
EBENE_1
 62
   255
100
AcDbVertex
100
AcDb2dVertex
 10
-37.08869221077991
 20
141.5899793482831
 30
0.0
  0
VERTEX
  5
FD
330
44
100
AcDbEntity
  8
EBENE_1
 62
   255
100
AcDbVertex
100
AcDb2dVertex
 10
-38.1303168307452
 20
141.5899793482831
 30
0.0
  0
VERTEX
  5
FE
330
44
100
AcDbEntity
  8
EBENE_1
 62
   255
100
AcDbVertex
100
AcDb2dVertex
 10
-39.17194145071049
 20
141.5899793482831
 30
0.0
  0
VERTEX
  5
FF
330
44
100
AcDbEntity
  8
EBENE_1
 62
   255
100
AcDbVertex
100
AcDb2dVertex
 10
-40.21373832545004
 20
141.5899793482831
 30
0.0
  0
VERTEX
  5
100
330
44
100
AcDbEntity
  8
EBENE_1
 62
   255
100
AcDbVertex
100
AcDb2dVertex
 10
-41.25536294541533
 20
141.5899793482831
 30
0.0
  0
VERTEX
  5
101
330
44
100
AcDbEntity
  8
EBENE_1
 62
   255
100
AcDbVertex
100
AcDb2dVertex
 10
-42.29698756538062
 20
141.5899793482831
 30
0.0
  0
VERTEX
  5
102
330
44
100
AcDbEntity
  8
EBENE_1
 62
   255
100
AcDbVertex
100
AcDb2dVertex
 10
-43.3386121853459
 20
141.5899793482831
 30
0.0
  0
VERTEX
  5
103
330
44
100
AcDbEntity
  8
EBENE_1
 62
   255
100
AcDbVertex
100
AcDb2dVertex
 10
-44.38040906008546
 20
141.5899793482831
 30
0.0
  0
VERTEX
  5
104
330
44
100
AcDbEntity
  8
EBENE_1
 62
   255
100
AcDbVertex
100
AcDb2dVertex
 10
-45.59670002115291
 20
141.5899793482831
 30
0.0
  0
VERTEX
  5
105
330
44
100
AcDbEntity
  8
EBENE_1
 62
   255
100
AcDbVertex
100
AcDb2dVertex
 10
-45.59670002115291
 20
142.6316039682484
 30
0.0
  0
VERTEX
  5
106
330
44
100
AcDbEntity
  8
EBENE_1
 62
   255
100
AcDbVertex
100
AcDb2dVertex
 10
-45.59670002115291
 20
143.6732285882136
 30
0.0
  0
VERTEX
  5
107
330
44
100
AcDbEntity
  8
EBENE_1
 62
   255
100
AcDbVertex
100
AcDb2dVertex
 10
-45.59670002115291
 20
144.7148532081789
 30
0.0
  0
VERTEX
  5
108
330
44
100
AcDbEntity
  8
EBENE_1
 62
   255
100
AcDbVertex
100
AcDb2dVertex
 10
-45.59670002115291
 20
145.7566500829185
 30
0.0
  0
VERTEX
  5
109
330
44
100
AcDbEntity
  8
EBENE_1
 62
   255
100
AcDbVertex
100
AcDb2dVertex
 10
-45.59670002115291
 20
146.798446957658
 30
0.0
  0
VERTEX
  5
10A
330
44
100
AcDbEntity
  8
EBENE_1
 62
   255
100
AcDbVertex
100
AcDb2dVertex
 10
-45.59670002115291
 20
147.839899322849
 30
0.0
  0
VERTEX
  5
10B
330
44
100
AcDbEntity
  8
EBENE_1
 62
   255
100
AcDbVertex
100
AcDb2dVertex
 10
-45.59670002115291
 20
148.8816961975886
 30
0.0
  0
VERTEX
  5
10C
330
44
100
AcDbEntity
  8
EBENE_1
 62
   255
100
AcDbVertex
100
AcDb2dVertex
 10
-45.59670002115291
 20
149.9233208175539
 30
0.0
  0
VERTEX
  5
10D
330
44
100
AcDbEntity
  8
EBENE_1
 62
   255
100
AcDbVertex
100
AcDb2dVertex
 10
-45.59670002115291
 20
150.9649454375192
 30
0.0
  0
VERTEX
  5
10E
330
44
100
AcDbEntity
  8
EBENE_1
 62
   255
100
AcDbVertex
100
AcDb2dVertex
 10
-45.59670002115291
 20
152.0065700574845
 30
0.0
  0
VERTEX
  5
10F
330
44
100
AcDbEntity
  8
EBENE_1
 62
   255
100
AcDbVertex
100
AcDb2dVertex
 10
-45.59670002115291
 20
153.048366932224
 30
0.0
  0
VERTEX
  5
110
330
44
100
AcDbEntity
  8
EBENE_1
 62
   255
100
AcDbVertex
100
AcDb2dVertex
 10
-45.59670002115291
 20
154.0899915521893
 30
0.0
  0
VERTEX
  5
111
330
44
100
AcDbEntity
  8
EBENE_1
 62
   255
100
AcDbVertex
100
AcDb2dVertex
 10
-45.59670002115291
 20
155.1316161721546
 30
0.0
  0
VERTEX
  5
112
330
44
100
AcDbEntity
  8
EBENE_1
 62
   255
100
AcDbVertex
100
AcDb2dVertex
 10
-45.59670002115291
 20
156.1732407921199
 30
0.0
  0
VERTEX
  5
113
330
44
100
AcDbEntity
  8
EBENE_1
 62
   255
100
AcDbVertex
100
AcDb2dVertex
 10
-45.59670002115291
 20
157.3275200344528
 30
0.0
  0
VERTEX
  5
114
330
44
100
AcDbEntity
  8
EBENE_1
 62
   255
100
AcDbVertex
100
AcDb2dVertex
 10
-44.55507540118762
 20
157.3275200344528
 30
0.0
  0
VERTEX
  5
115
330
44
100
AcDbEntity
  8
EBENE_1
 62
   255
100
AcDbVertex
100
AcDb2dVertex
 10
-43.51345078122233
 20
157.3275200344528
 30
0.0
  0
VERTEX
  5
116
330
44
100
AcDbEntity
  8
EBENE_1
 62
   255
100
AcDbVertex
100
AcDb2dVertex
 10
-42.47182616125705
 20
157.3275200344528
 30
0.0
  0
VERTEX
  5
117
330
44
100
AcDbEntity
  8
EBENE_1
 62
   255
100
AcDbVertex
100
AcDb2dVertex
 10
-41.4300292865175
 20
157.3275200344528
 30
0.0
  0
VERTEX
  5
118
330
44
100
AcDbEntity
  8
EBENE_1
 62
   255
100
AcDbVertex
100
AcDb2dVertex
 10
-40.3884046665522
 20
157.3275200344528
 30
0.0
  0
VERTEX
  5
119
330
44
100
AcDbEntity
  8
EBENE_1
 62
   255
100
AcDbVertex
100
AcDb2dVertex
 10
-39.34678004658691
 20
157.3275200344528
 30
0.0
  0
VERTEX
  5
11A
330
44
100
AcDbEntity
  8
EBENE_1
 62
   255
100
AcDbVertex
100
AcDb2dVertex
 10
-38.30515542662163
 20
157.3275200344528
 30
0.0
  0
VERTEX
  5
11B
330
44
100
AcDbEntity
  8
EBENE_1
 62
   255
100
AcDbVertex
100
AcDb2dVertex
 10
-37.26353080665634
 20
157.3275200344528
 30
0.0
  0
VERTEX
  5
11C
330
44
100
AcDbEntity
  8
EBENE_1
 62
   255
100
AcDbVertex
100
AcDb2dVertex
 10
-36.22173393191679
 20
157.3275200344528
 30
0.0
  0
VERTEX
  5
11D
330
44
100
AcDbEntity
  8
EBENE_1
 62
   255
100
AcDbVertex
100
AcDb2dVertex
 10
-35.1801093119515
 20
157.3275200344528
 30
0.0
  0
VERTEX
  5
11E
330
44
100
AcDbEntity
  8
EBENE_1
 62
   255
100
AcDbVertex
100
AcDb2dVertex
 10
-34.13848469198621
 20
157.3275200344528
 30
0.0
  0
VERTEX
  5
11F
330
44
100
AcDbEntity
  8
EBENE_1
 62
   255
100
AcDbVertex
100
AcDb2dVertex
 10
-33.09668781724666
 20
157.3275200344528
 30
0.0
  0
VERTEX
  5
120
330
44
100
AcDbEntity
  8
EBENE_1
 62
   255
100
AcDbVertex
100
AcDb2dVertex
 10
-32.05506319728138
 20
157.3275200344528
 30
0.0
  0
VERTEX
  5
121
330
44
100
AcDbEntity
  8
EBENE_1
 62
   255
100
AcDbVertex
100
AcDb2dVertex
 10
-31.01343857731609
 20
157.3275200344528
 30
0.0
  0
VERTEX
  5
122
330
44
100
AcDbEntity
  8
EBENE_1
 62
   255
100
AcDbVertex
100
AcDb2dVertex
 10
-29.9718139573508
 20
157.3275200344528
 30
0.0
  0
VERTEX
  5
123
330
44
100
AcDbEntity
  8
EBENE_1
 62
   255
100
AcDbVertex
100
AcDb2dVertex
 10
-28.93018933738551
 20
157.3275200344528
 30
0.0
  0
VERTEX
  5
124
330
44
100
AcDbEntity
  8
EBENE_1
 62
   255
100
AcDbVertex
100
AcDb2dVertex
 10
-27.88839246264596
 20
157.3275200344528
 30
0.0
  0
VERTEX
  5
125
330
44
100
AcDbEntity
  8
EBENE_1
 62
   255
100
AcDbVertex
100
AcDb2dVertex
 10
-26.84676784268067
 20
157.3275200344528
 30
0.0
  0
VERTEX
  5
126
330
44
100
AcDbEntity
  8
EBENE_1
 62
   255
100
AcDbVertex
100
AcDb2dVertex
 10
-25.80514322271538
 20
157.3275200344528
 30
0.0
  0
VERTEX
  5
127
330
44
100
AcDbEntity
  8
EBENE_1
 62
   255
100
AcDbVertex
100
AcDb2dVertex
 10
-24.76351860275009
 20
157.3275200344528
 30
0.0
  0
VERTEX
  5
128
330
44
100
AcDbEntity
  8
EBENE_1
 62
   255
100
AcDbVertex
100
AcDb2dVertex
 10
-23.72172172801054
 20
157.3275200344528
 30
0.0
  0
VERTEX
  5
129
330
44
100
AcDbEntity
  8
EBENE_1
 62
   255
100
AcDbVertex
100
AcDb2dVertex
 10
-22.68009710804526
 20
157.3275200344528
 30
0.0
  0
VERTEX
  5
12A
330
44
100
AcDbEntity
  8
EBENE_1
 62
   255
100
AcDbVertex
100
AcDb2dVertex
 10
-21.63847248807997
 20
157.3275200344528
 30
0.0
  0
VERTEX
  5
12B
330
44
100
AcDbEntity
  8
EBENE_1
 62
   255
100
AcDbVertex
100
AcDb2dVertex
 10
-20.59684786811468
 20
157.3275200344528
 30
0.0
  0
VERTEX
  5
12C
330
44
100
AcDbEntity
  8
EBENE_1
 62
   255
100
AcDbVertex
100
AcDb2dVertex
 10
-19.55505099337513
 20
157.3275200344528
 30
0.0
  0
VERTEX
  5
12D
330
44
100
AcDbEntity
  8
EBENE_1
 62
   255
100
AcDbVertex
100
AcDb2dVertex
 10
-18.51342637340984
 20
157.3275200344528
 30
0.0
  0
VERTEX
  5
12E
330
44
100
AcDbEntity
  8
EBENE_1
 62
   255
100
AcDbVertex
100
AcDb2dVertex
 10
-17.47180175344455
 20
157.3275200344528
 30
0.0
  0
VERTEX
  5
12F
330
44
100
AcDbEntity
  8
EBENE_1
 62
   255
100
AcDbVertex
100
AcDb2dVertex
 10
-16.43017713347926
 20
157.3275200344528
 30
0.0
  0
VERTEX
  5
130
330
44
100
AcDbEntity
  8
EBENE_1
 62
   255
100
AcDbVertex
100
AcDb2dVertex
 10
-15.38838025873971
 20
157.3275200344528
 30
0.0
  0
VERTEX
  5
131
330
44
100
AcDbEntity
  8
EBENE_1
 62
   255
100
AcDbVertex
100
AcDb2dVertex
 10
-14.34675563877442
 20
157.3275200344528
 30
0.0
  0
VERTEX
  5
132
330
44
100
AcDbEntity
  8
EBENE_1
 62
   255
100
AcDbVertex
100
AcDb2dVertex
 10
-13.30513101880913
 20
157.3275200344528
 30
0.0
  0
VERTEX
  5
133
330
44
100
AcDbEntity
  8
EBENE_1
 62
   255
100
AcDbVertex
100
AcDb2dVertex
 10
-12.08866780296742
 20
157.3275200344528
 30
0.0
  0
VERTEX
  5
134
330
44
100
AcDbEntity
  8
EBENE_1
 62
   255
100
AcDbVertex
100
AcDb2dVertex
 10
-12.08866780296742
 20
158.3693169091924
 30
0.0
  0
VERTEX
  5
135
330
44
100
AcDbEntity
  8
EBENE_1
 62
   255
100
AcDbVertex
100
AcDb2dVertex
 10
-12.08866780296742
 20
159.4109415291577
 30
0.0
  0
VERTEX
  5
136
330
44
100
AcDbEntity
  8
EBENE_1
 62
   255
100
AcDbVertex
100
AcDb2dVertex
 10
-12.08866780296742
 20
160.452566149123
 30
0.0
  0
VERTEX
  5
137
330
44
100
AcDbEntity
  8
EBENE_1
 62
   255
100
AcDbVertex
100
AcDb2dVertex
 10
-12.08866780296742
 20
161.4941907690883
 30
0.0
  0
VERTEX
  5
138
330
44
100
AcDbEntity
  8
EBENE_1
 62
   255
100
AcDbVertex
100
AcDb2dVertex
 10
-12.08866780296742
 20
162.5358153890536
 30
0.0
  0
VERTEX
  5
139
330
44
100
AcDbEntity
  8
EBENE_1
 62
   255
100
AcDbVertex
100
AcDb2dVertex
 10
-12.08866780296742
 20
163.5776122637931
 30
0.0
  0
VERTEX
  5
13A
330
44
100
AcDbEntity
  8
EBENE_1
 62
   255
100
AcDbVertex
100
AcDb2dVertex
 10
-12.08866780296742
 20
164.6192368837584
 30
0.0
  0
VERTEX
  5
13B
330
44
100
AcDbEntity
  8
EBENE_1
 62
   255
100
AcDbVertex
100
AcDb2dVertex
 10
-12.08866780296742
 20
165.6608615037237
 30
0.0
  0
VERTEX
  5
13C
330
44
100
AcDbEntity
  8
EBENE_1
 62
   255
100
AcDbVertex
100
AcDb2dVertex
 10
-12.08866780296742
 20
166.702486123689
 30
0.0
  0
VERTEX
  5
13D
330
44
100
AcDbEntity
  8
EBENE_1
 62
   255
100
AcDbVertex
100
AcDb2dVertex
 10
-12.08866780296742
 20
166.8466633697467
 30
0.0
  0
VERTEX
  5
13E
330
44
100
AcDbEntity
  8
EBENE_1
 62
   255
100
AcDbVertex
100
AcDb2dVertex
 10
-13.1302924229327
 20
166.8466633697467
 30
0.0
  0
VERTEX
  5
13F
330
44
100
AcDbEntity
  8
EBENE_1
 62
   255
100
AcDbVertex
100
AcDb2dVertex
 10
-14.17208929767226
 20
166.8466633697467
 30
0.0
  0
VERTEX
  5
140
330
44
100
AcDbEntity
  8
EBENE_1
 62
   255
100
AcDbVertex
100
AcDb2dVertex
 10
-15.21371391763754
 20
166.8466633697467
 30
0.0
  0
VERTEX
  5
141
330
44
100
AcDbEntity
  8
EBENE_1
 62
   255
100
AcDbVertex
100
AcDb2dVertex
 10
-16.25533853760283
 20
166.8466633697467
 30
0.0
  0
VERTEX
  5
142
330
44
100
AcDbEntity
  8
EBENE_1
 62
   255
100
AcDbVertex
100
AcDb2dVertex
 10
-17.29696315756812
 20
166.8466633697467
 30
0.0
  0
VERTEX
  5
143
330
44
100
AcDbEntity
  8
EBENE_1
 62
   255
100
AcDbVertex
100
AcDb2dVertex
 10
-18.33858777753341
 20
166.8466633697467
 30
0.0
  0
VERTEX
  5
144
330
44
100
AcDbEntity
  8
EBENE_1
 62
   255
100
AcDbVertex
100
AcDb2dVertex
 10
-19.38038465227296
 20
166.8466633697467
 30
0.0
  0
VERTEX
  5
145
330
44
100
AcDbEntity
  8
EBENE_1
 62
   255
100
AcDbVertex
100
AcDb2dVertex
 10
-20.42200927223825
 20
166.8466633697467
 30
0.0
  0
VERTEX
  5
146
330
44
100
AcDbEntity
  8
EBENE_1
 62
   255
100
AcDbVertex
100
AcDb2dVertex
 10
-21.46363389220354
 20
166.8466633697467
 30
0.0
  0
VERTEX
  5
147
330
44
100
AcDbEntity
  8
EBENE_1
 62
   255
100
AcDbVertex
100
AcDb2dVertex
 10
-22.50543076694309
 20
166.8466633697467
 30
0.0
  0
VERTEX
  5
148
330
44
100
AcDbEntity
  8
EBENE_1
 62
   255
100
AcDbVertex
100
AcDb2dVertex
 10
-23.54705538690838
 20
166.8466633697467
 30
0.0
  0
VERTEX
  5
149
330
44
100
AcDbEntity
  8
EBENE_1
 62
   255
100
AcDbVertex
100
AcDb2dVertex
 10
-24.58868000687367
 20
166.8466633697467
 30
0.0
  0
VERTEX
  5
14A
330
44
100
AcDbEntity
  8
EBENE_1
 62
   255
100
AcDbVertex
100
AcDb2dVertex
 10
-25.63030462683895
 20
166.8466633697467
 30
0.0
  0
VERTEX
  5
14B
330
44
100
AcDbEntity
  8
EBENE_1
 62
   255
100
AcDbVertex
100
AcDb2dVertex
 10
-26.67192924680424
 20
166.8466633697467
 30
0.0
  0
VERTEX
  5
14C
330
44
100
AcDbEntity
  8
EBENE_1
 62
   255
100
AcDbVertex
100
AcDb2dVertex
 10
-27.71372612154379
 20
166.8466633697467
 30
0.0
  0
VERTEX
  5
14D
330
44
100
AcDbEntity
  8
EBENE_1
 62
   255
100
AcDbVertex
100
AcDb2dVertex
 10
-28.75535074150908
 20
166.8466633697467
 30
0.0
  0
VERTEX
  5
14E
330
44
100
AcDbEntity
  8
EBENE_1
 62
   255
100
AcDbVertex
100
AcDb2dVertex
 10
-29.79697536147437
 20
166.8466633697467
 30
0.0
  0
VERTEX
  5
14F
330
44
100
AcDbEntity
  8
EBENE_1
 62
   255
100
AcDbVertex
100
AcDb2dVertex
 10
-30.83859998143966
 20
166.8466633697467
 30
0.0
  0
VERTEX
  5
150
330
44
100
AcDbEntity
  8
EBENE_1
 62
   255
100
AcDbVertex
100
AcDb2dVertex
 10
-31.88039685617921
 20
166.8466633697467
 30
0.0
  0
VERTEX
  5
151
330
44
100
AcDbEntity
  8
EBENE_1
 62
   255
100
AcDbVertex
100
AcDb2dVertex
 10
-32.92202147614449
 20
166.8466633697467
 30
0.0
  0
VERTEX
  5
152
330
44
100
AcDbEntity
  8
EBENE_1
 62
   255
100
AcDbVertex
100
AcDb2dVertex
 10
-33.96364609610978
 20
166.8466633697467
 30
0.0
  0
VERTEX
  5
153
330
44
100
AcDbEntity
  8
EBENE_1
 62
   255
100
AcDbVertex
100
AcDb2dVertex
 10
-35.00527071607507
 20
166.8466633697467
 30
0.0
  0
VERTEX
  5
154
330
44
100
AcDbEntity
  8
EBENE_1
 62
   255
100
AcDbVertex
100
AcDb2dVertex
 10
-36.04706759081462
 20
166.8466633697467
 30
0.0
  0
VERTEX
  5
155
330
44
100
AcDbEntity
  8
EBENE_1
 62
   255
100
AcDbVertex
100
AcDb2dVertex
 10
-37.08869221077991
 20
166.8466633697467
 30
0.0
  0
VERTEX
  5
156
330
44
100
AcDbEntity
  8
EBENE_1
 62
   255
100
AcDbVertex
100
AcDb2dVertex
 10
-38.1303168307452
 20
166.8466633697467
 30
0.0
  0
VERTEX
  5
157
330
44
100
AcDbEntity
  8
EBENE_1
 62
   255
100
AcDbVertex
100
AcDb2dVertex
 10
-39.17194145071049
 20
166.8466633697467
 30
0.0
  0
VERTEX
  5
158
330
44
100
AcDbEntity
  8
EBENE_1
 62
   255
100
AcDbVertex
100
AcDb2dVertex
 10
-40.21373832545004
 20
166.8466633697467
 30
0.0
  0
VERTEX
  5
159
330
44
100
AcDbEntity
  8
EBENE_1
 62
   255
100
AcDbVertex
100
AcDb2dVertex
 10
-41.25536294541533
 20
166.8466633697467
 30
0.0
  0
VERTEX
  5
15A
330
44
100
AcDbEntity
  8
EBENE_1
 62
   255
100
AcDbVertex
100
AcDb2dVertex
 10
-42.29698756538062
 20
166.8466633697467
 30
0.0
  0
VERTEX
  5
15B
330
44
100
AcDbEntity
  8
EBENE_1
 62
   255
100
AcDbVertex
100
AcDb2dVertex
 10
-43.3386121853459
 20
166.8466633697467
 30
0.0
  0
VERTEX
  5
15C
330
44
100
AcDbEntity
  8
EBENE_1
 62
   255
100
AcDbVertex
100
AcDb2dVertex
 10
-44.38040906008546
 20
166.8466633697467
 30
0.0
  0
VERTEX
  5
15D
330
44
100
AcDbEntity
  8
EBENE_1
 62
   255
100
AcDbVertex
100
AcDb2dVertex
 10
-45.59670002115291
 20
166.8466633697467
 30
0.0
  0
SEQEND
  5
15E
330
44
100
AcDbEntity
  8
EBENE_1
  0
ENDBLK
  5
43
330
40
100
AcDbEntity
  8
0
100
AcDbBlockEnd
  0
ENDSEC
  0
SECTION
  2
ENTITIES
  0
INSERT
  5
3D
330
1F
100
AcDbEntity
  8
EBENE_1
100
AcDbBlockReference
  2
BLOCK_2
 10
0.0
 20
0.0
 30
0.0
  0
ENDSEC
  0
SECTION
  2
OBJECTS
  0
DICTIONARY
  5
C
330
0
100
AcDbDictionary
  3
ACAD_GROUP
350
D
  3
ACAD_LAYOUT
350
1A
  3
ACAD_MLINESTYLE
350
17
  3
ACAD_PLOTSETTINGS
350
19
  3
ACAD_TABLESTYLE
350
17F
  3
ACAD_VISUALSTYLE
350
2A
  3
ACDBHEADERROUNDTRIPXREC
350
15F
  0
DICTIONARY
  5
D
102
{ACAD_REACTORS
330
C
102
}
330
C
100
AcDbDictionary
  0
DICTIONARY
  5
1A
102
{ACAD_REACTORS
330
C
102
}
330
C
100
AcDbDictionary
  0
DICTIONARY
  5
17
102
{ACAD_REACTORS
330
C
102
}
330
C
100
AcDbDictionary
  3
STANDARD
350
18
  0
DICTIONARY
  5
19
102
{ACAD_REACTORS
330
C
102
}
330
C
100
AcDbDictionary
  0
DICTIONARY
  5
17F
102
{ACAD_REACTORS
330
C
102
}
330
C
100
AcDbDictionary
  0
DICTIONARY
  5
2A
102
{ACAD_REACTORS
330
C
102
}
330
C
100
AcDbDictionary
  3
2DWIREFRAME
350
2F
  3
3D_HIDDEN
350
31
  3
3DWIREFRAME
350
30
  3
BASIC
350
32
  3
BRIGHTEN
350
36
  3
COLORCHANGE
350
3A
  3
CONCEPTUAL
350
34
  3
DIM
350
35
  3
FACEPATTERN
350
39
  3
FLAT
350
2B
  3
FLATWITHEDGES
350
2C
  3
GOURAUD
350
2D
  3
GOURAUDWITHEDGES
350
2E
  3
LINEPATTERN
350
38
  3
REALISTIC
350
33
  3
THICKEN
350
37
  0
DICTIONARY
  5
15F
102
{ACAD_REACTORS
330
C
102
}
330
C
100
AcDbDictionary
  3
CEPSNTYPE
350
168
  3
DIMSTYLEDATA
350
17E
  3
FINGERPRINTGUID
350
169
  3
HYPERLINKBASE
350
162
  3
INSUNITS
350
167
  3
LAYOUTDICT
350
164
  3
LWETCUNION
350
166
  3
PLOTSETDICT
350
165
  3
PSVPSCALE
350
16B
  3
PUCSBASE
350
16E
  3
PUCSORGBACK
350
174
  3
PUCSORGBOTTOM
350
170
  3
PUCSORGFRONT
350
173
  3
PUCSORGLEFT
350
171
  3
PUCSORGRIGHT
350
172
  3
PUCSORGTOP
350
16F
  3
PUCSORTHOREF
350
16C
  3
PUCSORTHOVIEW
350
16D
  3
STYLESHEET
350
163
  3
TSTACKALIGN
350
160
  3
TSTACKSIZE
350
161
  3
UCSBASE
350
177
  3
UCSORGBACK
350
17D
  3
UCSORGBOTTOM
350
179
  3
UCSORGFRONT
350
17C
  3
UCSORGLEFT
350
17A
  3
UCSORGRIGHT
350
17B
  3
UCSORGTOP
350
178
  3
UCSORTHOREF
350
175
  3
UCSORTHOVIEW
350
176
  3
VERSIONGUID
350
16A
  0
MLINESTYLE
  5
18
102
{ACAD_REACTORS
330
17
102
}
330
17
100
AcDbMlineStyle
  2
Standard
 70
     0
  3

 62
   256
 51
90.0
 52
90.0
 71
     2
 49
0.5
 62
   256
  6
BYLAYER
 49
-0.5
 62
   256
  6
BYLAYER
  0
VISUALSTYLE
  5
2F
102
{ACAD_REACTORS
330
2A
102
}
330
2A
100
AcDbVisualStyle
  2
2dWireframe
 70
     4
 71
     0
 72
     2
 73
     0
 90
        0
 40
-0.6
 41
-30.0
 62
     5
 63
     7
 74
     1
 91
        4
 64
     7
 65
   257
 75
     1
175
     1
 42
1.0
 92
        0
 66
   257
 43
1.0
 76
     1
 77
     6
 78
     2
 67
     7
 79
     5
170
     0
171
     0
290
     0
174
     0
 93
        1
 44
0.0
173
     0
291
     0
 45
0.0
1001
ACAD
1000
AcDbSavedByObjectVersion
1070
     0
  0
VISUALSTYLE
  5
31
102
{ACAD_REACTORS
330
2A
102
}
330
2A
100
AcDbVisualStyle
  2
3D Hidden
 70
     6
 71
     1
 72
     2
 73
     2
 90
        0
 40
-0.6
 41
-30.0
 62
     5
 63
     7
 74
     2
 91
        2
 64
     7
 65
   257
 75
     2
175
     1
 42
40.0
 92
        0
 66
   257
 43
1.0
 76
     1
 77
     6
 78
     2
 67
     7
 79
     3
170
     0
171
     0
290
     0
174
     0
 93
        1
 44
0.0
173
     0
291
     0
 45
0.0
1001
ACAD
1000
AcDbSavedByObjectVersion
1070
     0
  0
VISUALSTYLE
  5
30
102
{ACAD_REACTORS
330
2A
102
}
330
2A
100
AcDbVisualStyle
  2
3dWireframe
 70
     5
 71
     0
 72
     2
 73
     0
 90
        0
 40
-0.6
 41
-30.0
 62
     5
 63
     7
 74
     1
 91
        4
 64
     7
 65
   257
 75
     1
175
     1
 42
1.0
 92
        0
 66
   257
 43
1.0
 76
     1
 77
     6
 78
     2
 67
     7
 79
     5
170
     0
171
     0
290
     0
174
     0
 93
        1
 44
0.0
173
     0
291
     0
 45
0.0
1001
ACAD
1000
AcDbSavedByObjectVersion
1070
     0
  0
VISUALSTYLE
  5
32
102
{ACAD_REACTORS
330
2A
102
}
330
2A
100
AcDbVisualStyle
  2
Basic
 70
     7
 71
     1
 72
     0
 73
     1
 90
        0
 40
-0.6
 41
-30.0
 62
     5
 63
     7
 74
     0
 91
        4
 64
     7
 65
   257
 75
     1
175
     1
 42
1.0
 92
        8
 66
     7
 43
1.0
 76
     1
 77
     6
 78
     2
 67
     7
 79
     5
170
     0
171
     0
290
     0
174
     0
 93
        1
 44
0.0
173
     0
291
     1
 45
0.0
1001
ACAD
1000
AcDbSavedByObjectVersion
1070
     0
  0
VISUALSTYLE
  5
36
102
{ACAD_REACTORS
330
2A
102
}
330
2A
100
AcDbVisualStyle
  2
Brighten
 70
    12
 71
     2
 72
     2
 73
     0
 90
        0
 40
-0.6
 41
-30.0
 62
     5
 63
     7
 74
     1
 91
        4
 64
     7
 65
   257
 75
     1
175
     1
 42
1.0
 92
        8
 66
     7
 43
1.0
 76
     1
 77
     6
 78
     2
 67
     7
 79
     5
170
     0
171
     0
290
     0
174
     0
 93
        1
 44
50.0
173
     0
291
     1
 45
0.0
1001
ACAD
1000
AcDbSavedByObjectVersion
1070
     0
  0
VISUALSTYLE
  5
3A
102
{ACAD_REACTORS
330
2A
102
}
330
2A
100
AcDbVisualStyle
  2
ColorChange
 70
    16
 71
     2
 72
     2
 73
     3
 90
        0
 40
-0.6
 41
-30.0
 62
     5
 63
     8
 74
     1
 91
        4
 64
     7
 65
   257
 75
     1
175
     1
 42
1.0
 92
        8
 66
     8
 43
1.0
 76
     1
 77
     6
 78
     2
 67
     7
 79
     5
170
     0
171
     0
290
     0
174
     0
 93
        1
 44
0.0
173
     0
291
     1
 45
0.0
1001
ACAD
1000
AcDbSavedByObjectVersion
1070
     0
  0
VISUALSTYLE
  5
34
102
{ACAD_REACTORS
330
2A
102
}
330
2A
100
AcDbVisualStyle
  2
Conceptual
 70
     9
 71
     3
 72
     2
 73
     0
 90
        0
 40
-0.6
 41
-30.0
 62
     5
 63
     7
 74
     2
 91
        2
 64
     7
 65
   257
 75
     1
175
     1
 42
40.0
 92
        8
 66
     7
 43
1.0
 76
     1
 77
     6
 78
     2
 67
     7
 79
     3
170
     0
171
     0
290
     0
174
     0
 93
        1
 44
0.0
173
     0
291
     0
 45
0.0
1001
ACAD
1000
AcDbSavedByObjectVersion
1070
     0
  0
VISUALSTYLE
  5
35
102
{ACAD_REACTORS
330
2A
102
}
330
2A
100
AcDbVisualStyle
  2
Dim
 70
    11
 71
     2
 72
     2
 73
     0
 90
        0
 40
-0.6
 41
-30.0
 62
     5
 63
     7
 74
     1
 91
        4
 64
     7
 65
   257
 75
     1
175
     1
 42
1.0
 92
        8
 66
     7
 43
1.0
 76
     1
 77
     6
 78
     2
 67
     7
 79
     5
170
     0
171
     0
290
     0
174
     0
 93
        1
 44
-50.0
173
     0
291
     1
 45
0.0
1001
ACAD
1000
AcDbSavedByObjectVersion
1070
     0
  0
VISUALSTYLE
  5
39
102
{ACAD_REACTORS
330
2A
102
}
330
2A
100
AcDbVisualStyle
  2
Facepattern
 70
    15
 71
     2
 72
     2
 73
     0
 90
        0
 40
-0.6
 41
-30.0
 62
     5
 63
     7
 74
     1
 91
        4
 64
     7
 65
   257
 75
     1
175
     1
 42
1.0
 92
        8
 66
     7
 43
1.0
 76
     1
 77
     6
 78
     2
 67
     7
 79
     5
170
     0
171
     0
290
     0
174
     0
 93
        1
 44
0.0
173
     0
291
     1
 45
0.0
1001
ACAD
1000
AcDbSavedByObjectVersion
1070
     0
  0
VISUALSTYLE
  5
2B
102
{ACAD_REACTORS
330
2A
102
}
330
2A
100
AcDbVisualStyle
  2
Flat
 70
     0
 71
     2
 72
     1
 73
     1
 90
        2
 40
-0.6
 41
30.0
 62
     5
 63
     7
 74
     0
 91
        4
 64
     7
 65
   257
 75
     1
175
     1
 42
1.0
 92
        8
 66
     7
 43
1.0
 76
     1
 77
     6
 78
     2
 67
     7
 79
     5
170
     0
171
     0
290
     0
174
     0
 93
       13
 44
0.0
173
     0
291
     1
 45
0.0
1001
ACAD
1000
AcDbSavedByObjectVersion
1070
     0
  0
VISUALSTYLE
  5
2C
102
{ACAD_REACTORS
330
2A
102
}
330
2A
100
AcDbVisualStyle
  2
FlatWithEdges
 70
     1
 71
     2
 72
     1
 73
     1
 90
        2
 40
-0.6
 41
30.0
 62
     5
 63
     7
 74
     1
 91
        4
 64
     7
 65
   257
 75
     1
175
     1
 42
1.0
 92
        0
 66
   257
 43
1.0
 76
     1
 77
     6
 78
     2
 67
     7
 79
     5
170
     0
171
     0
290
     0
174
     0
 93
       13
 44
0.0
173
     0
291
     1
 45
0.0
1001
ACAD
1000
AcDbSavedByObjectVersion
1070
     0
  0
VISUALSTYLE
  5
2D
102
{ACAD_REACTORS
330
2A
102
}
330
2A
100
AcDbVisualStyle
  2
Gouraud
 70
     2
 71
     2
 72
     2
 73
     1
 90
        2
 40
-0.6
 41
30.0
 62
     5
 63
     7
 74
     0
 91
        4
 64
     7
 65
   257
 75
     1
175
     1
 42
1.0
 92
        0
 66
     7
 43
1.0
 76
     1
 77
     6
 78
     2
 67
     7
 79
     5
170
     0
171
     0
290
     0
174
     0
 93
       13
 44
0.0
173
     0
291
     1
 45
0.0
1001
ACAD
1000
AcDbSavedByObjectVersion
1070
     0
  0
VISUALSTYLE
  5
2E
102
{ACAD_REACTORS
330
2A
102
}
330
2A
100
AcDbVisualStyle
  2
GouraudWithEdges
 70
     3
 71
     2
 72
     2
 73
     1
 90
        2
 40
-0.6
 41
30.0
 62
     5
 63
     7
 74
     1
 91
        4
 64
     7
 65
   257
 75
     1
175
     1
 42
1.0
 92
        0
 66
   257
 43
1.0
 76
     1
 77
     6
 78
     2
 67
     7
 79
     5
170
     0
171
     0
290
     0
174
     0
 93
       13
 44
0.0
173
     0
291
     1
 45
0.0
1001
ACAD
1000
AcDbSavedByObjectVersion
1070
     0
  0
VISUALSTYLE
  5
38
102
{ACAD_REACTORS
330
2A
102
}
330
2A
100
AcDbVisualStyle
  2
Linepattern
 70
    14
 71
     2
 72
     2
 73
     0
 90
        0
 40
-0.6
 41
-30.0
 62
     5
 63
     7
 74
     1
 91
        4
 64
     7
 65
   257
 75
     7
175
     7
 42
1.0
 92
        8
 66
     7
 43
1.0
 76
     1
 77
     6
 78
     2
 67
     7
 79
     5
170
     0
171
     0
290
     0
174
     0
 93
        1
 44
0.0
173
     0
291
     1
 45
0.0
1001
ACAD
1000
AcDbSavedByObjectVersion
1070
     0
  0
VISUALSTYLE
  5
33
102
{ACAD_REACTORS
330
2A
102
}
330
2A
100
AcDbVisualStyle
  2
Realistic
 70
     8
 71
     2
 72
     2
 73
     0
 90
        0
 40
-0.6
 41
-30.0
 62
     5
 63
     7
 74
     1
 91
        0
 64
     7
 65
   257
 75
     1
175
     1
 42
1.0
 92
        8
 66
     8
 43
1.0
 76
     1
 77
     6
 78
     2
 67
     7
 79
     5
170
     0
171
     0
290
     0
174
     0
 93
       13
 44
0.0
173
     0
291
     0
 45
0.0
1001
ACAD
1000
AcDbSavedByObjectVersion
1070
     0
  0
VISUALSTYLE
  5
37
102
{ACAD_REACTORS
330
2A
102
}
330
2A
100
AcDbVisualStyle
  2
Thicken
 70
    13
 71
     2
 72
     2
 73
     0
 90
        0
 40
-0.6
 41
-30.0
 62
     5
 63
     7
 74
     1
 91
        4
 64
     7
 65
   257
 75
     1
175
     1
 42
1.0
 92
       12
 66
     7
 43
1.0
 76
     1
 77
     6
 78
     2
 67
     7
 79
     5
170
     0
171
     0
290
     0
174
     0
 93
        1
 44
0.0
173
     0
291
     1
 45
0.0
1001
ACAD
1000
AcDbSavedByObjectVersion
1070
     0
  0
XRECORD
  5
168
102
{ACAD_REACTORS
330
15F
102
}
330
15F
100
AcDbXrecord
 90
        0
  0
XRECORD
  5
17E
102
{ACAD_REACTORS
330
15F
102
}
330
15F
100
AcDbXrecord
1000
DSTYLE
1002
{
1070
   340
340
11
1002
}
  0
XRECORD
  5
169
102
{ACAD_REACTORS
330
15F
102
}
330
15F
100
AcDbXrecord
  1
{9FB79FD7-DD48-482B-A9A0-0618C76E323E}
  0
XRECORD
  5
162
102
{ACAD_REACTORS
330
15F
102
}
330
15F
100
AcDbXrecord
  1

  0
XRECORD
  5
167
102
{ACAD_REACTORS
330
15F
102
}
330
15F
100
AcDbXrecord
 90
        1
  0
XRECORD
  5
164
102
{ACAD_REACTORS
330
15F
102
}
330
15F
100
AcDbXrecord
340
1A
  0
XRECORD
  5
166
102
{ACAD_REACTORS
330
15F
102
}
330
15F
100
AcDbXrecord
 90
    10269
  0
XRECORD
  5
165
102
{ACAD_REACTORS
330
15F
102
}
330
15F
100
AcDbXrecord
340
19
  0
XRECORD
  5
16B
102
{ACAD_REACTORS
330
15F
102
}
330
15F
100
AcDbXrecord
 40
0.0
  0
XRECORD
  5
16E
102
{ACAD_REACTORS
330
15F
102
}
330
15F
100
AcDbXrecord
340
0
  0
XRECORD
  5
174
102
{ACAD_REACTORS
330
15F
102
}
330
15F
100
AcDbXrecord
 10
0.0
 20
0.0
 30
0.0
  0
XRECORD
  5
170
102
{ACAD_REACTORS
330
15F
102
}
330
15F
100
AcDbXrecord
 10
0.0
 20
0.0
 30
0.0
  0
XRECORD
  5
173
102
{ACAD_REACTORS
330
15F
102
}
330
15F
100
AcDbXrecord
 10
0.0
 20
0.0
 30
0.0
  0
XRECORD
  5
171
102
{ACAD_REACTORS
330
15F
102
}
330
15F
100
AcDbXrecord
 10
0.0
 20
0.0
 30
0.0
  0
XRECORD
  5
172
102
{ACAD_REACTORS
330
15F
102
}
330
15F
100
AcDbXrecord
 10
0.0
 20
0.0
 30
0.0
  0
XRECORD
  5
16F
102
{ACAD_REACTORS
330
15F
102
}
330
15F
100
AcDbXrecord
 10
0.0
 20
0.0
 30
0.0
  0
XRECORD
  5
16C
102
{ACAD_REACTORS
330
15F
102
}
330
15F
100
AcDbXrecord
340
0
  0
XRECORD
  5
16D
102
{ACAD_REACTORS
330
15F
102
}
330
15F
100
AcDbXrecord
 70
     0
  0
XRECORD
  5
163
102
{ACAD_REACTORS
330
15F
102
}
330
15F
100
AcDbXrecord
  1

  0
XRECORD
  5
160
102
{ACAD_REACTORS
330
15F
102
}
330
15F
100
AcDbXrecord
 90
        1
  0
XRECORD
  5
161
102
{ACAD_REACTORS
330
15F
102
}
330
15F
100
AcDbXrecord
 90
       70
  0
XRECORD
  5
177
102
{ACAD_REACTORS
330
15F
102
}
330
15F
100
AcDbXrecord
340
0
  0
XRECORD
  5
17D
102
{ACAD_REACTORS
330
15F
102
}
330
15F
100
AcDbXrecord
 10
0.0
 20
0.0
 30
0.0
  0
XRECORD
  5
179
102
{ACAD_REACTORS
330
15F
102
}
330
15F
100
AcDbXrecord
 10
0.0
 20
0.0
 30
0.0
  0
XRECORD
  5
17C
102
{ACAD_REACTORS
330
15F
102
}
330
15F
100
AcDbXrecord
 10
0.0
 20
0.0
 30
0.0
  0
XRECORD
  5
17A
102
{ACAD_REACTORS
330
15F
102
}
330
15F
100
AcDbXrecord
 10
0.0
 20
0.0
 30
0.0
  0
XRECORD
  5
17B
102
{ACAD_REACTORS
330
15F
102
}
330
15F
100
AcDbXrecord
 10
0.0
 20
0.0
 30
0.0
  0
XRECORD
  5
178
102
{ACAD_REACTORS
330
15F
102
}
330
15F
100
AcDbXrecord
 10
0.0
 20
0.0
 30
0.0
  0
XRECORD
  5
175
102
{ACAD_REACTORS
330
15F
102
}
330
15F
100
AcDbXrecord
340
0
  0
XRECORD
  5
176
102
{ACAD_REACTORS
330
15F
102
}
330
15F
100
AcDbXrecord
 70
     0
  0
XRECORD
  5
16A
102
{ACAD_REACTORS
330
15F
102
}
330
15F
100
AcDbXrecord
  1
{FAEB1C32-E019-11D5-929B-00C0DF256EC4}
  0
ENDSEC
  0
EOF
