<?xml version='1.0' encoding='ascii'?>
<svg xmlns="http://www.w3.org/2000/svg" height="540" version="1.1" width="960">
    <g id="RenderLayer_LineSet" inkscape:groupmode="lineset" inkscape:label="RenderLayer_LineSet" xmlns:inkscape="http://www.inkscape.org/namespaces/inkscape">
        <g id="strokes" inkscape:groupmode="layer" inkscape:label="strokes" xmlns:inkscape="http://www.inkscape.org/namespaces/inkscape">
            <path d=" M 486.247, 94.549 476.247, 94.549 466.247, 94.549 456.247, 94.549 446.247, 94.549 436.247, 94.549 426.247, 94.549 416.247, 94.549 406.247, 94.549 396.247, 94.549 386.247, 94.549 376.247, 94.549 366.247, 94.549 356.247, 94.549 346.247, 94.549 336.247, 94.549 326.247, 94.549 316.247, 94.549 306.247, 94.549 296.247, 94.549 286.247, 94.549 276.675, 94.549 266.675, 94.549 256.675, 94.549 246.675, 94.549 236.675, 94.549 226.675, 94.549 216.675, 94.549 206.675, 94.549 196.675, 94.549 186.675, 94.549 176.675, 94.549 166.675, 94.549 156.675, 94.549 146.675, 94.549 136.675, 94.549 126.675, 94.549 116.675, 94.549 106.675, 94.549 96.675, 94.549 86.675, 94.549 84.675, 94.549 84.675, 104.549 84.675, 114.549 84.675, 124.549 84.675, 134.549 84.675, 144.549 84.675, 154.549 84.675, 164.549 84.675, 174.549 84.675, 184.549 84.675, 185.932 84.675, 195.932 84.675, 205.932 84.675, 215.932 84.675, 225.932 84.675, 235.932 84.675, 245.932 84.675, 255.932 84.675, 265.932 84.675, 275.932 84.675, 285.932 84.675, 295.932 84.675, 305.932 84.675, 315.932 84.675, 325.932 84.675, 337.012 84.675, 347.012 84.675, 357.012 84.675, 367.012 84.675, 377.012 84.675, 387.012 84.675, 397.012 84.675, 407.012 84.675, 417.012 84.675, 427.012 84.675, 430.549 94.675, 430.549 104.675, 430.549 114.675, 430.549 124.675, 430.549 134.675, 430.549 144.675, 430.549 154.675, 430.549 164.675, 430.549 174.675, 430.549 184.675, 430.549 194.675, 430.549 204.675, 430.549 214.675, 430.549 224.675, 430.549 234.675, 430.549 244.675, 430.549 254.675, 430.549 264.675, 430.549 274.675, 430.549 276.675, 430.549 286.675, 430.549 296.675, 430.549 306.675, 430.549 316.675, 430.549 326.675, 430.549 336.675, 430.549 346.675, 430.549 356.675, 430.549 366.675, 430.549 376.675, 430.549 386.675, 430.549 396.675, 430.549 406.675, 430.549 416.675, 430.549 426.675, 430.549 436.675, 430.549 446.675, 430.549 456.675, 430.549 466.675, 430.549 476.675, 430.549 486.247, 430.549 496.247, 430.549 506.247, 430.549 516.247, 430.549 526.247, 430.549 536.247, 430.549 546.247, 430.549 556.247, 430.549 566.247, 430.549 576.247, 430.549 586.247, 430.549 596.247, 430.549 606.247, 430.549 616.247, 430.549 626.247, 430.549 636.247, 430.549 646.247, 430.549 656.247, 430.549 666.247, 430.549 676.247, 430.549 686.247, 430.549 696.247, 430.549 706.247, 430.549 716.247, 430.549 726.247, 430.549 736.247, 430.549 746.247, 430.549 756.247, 430.549 766.247, 430.549 776.247, 430.549 786.247, 430.549 796.247, 430.549 807.925, 430.549 807.925, 420.549 807.925, 410.549 807.925, 400.549 807.925, 390.549 807.925, 380.549 807.925, 370.549 807.925, 360.549 807.925, 350.549 807.925, 340.549 807.925, 337.013 797.925, 337.013 787.925, 337.013 777.925, 337.013 767.925, 337.013 757.925, 337.013 747.925, 337.013 737.925, 337.013 727.925, 337.013 717.925, 337.013 707.925, 337.013 697.925, 337.013 687.925, 337.013 677.925, 337.013 667.925, 337.013 657.925, 337.013 647.925, 337.013 637.925, 337.013 627.925, 337.013 617.925, 337.013 607.925, 337.013 597.925, 337.013 587.925, 337.013 577.925, 337.013 567.925, 337.013 557.925, 337.013 547.925, 337.013 537.925, 337.013 527.925, 337.013 517.925, 337.013 507.925, 337.013 497.925, 337.013 486.247, 337.013 486.247, 327.013 486.247, 317.013 486.247, 307.013 486.247, 297.013 486.247, 287.012 486.247, 277.013 486.247, 267.013 486.247, 257.013 486.247, 247.013 486.247, 237.013 486.247, 227.013 486.247, 217.013 486.247, 207.013 486.247, 197.013 486.247, 185.932 496.247, 185.932 506.247, 185.932 516.247, 185.932 526.247, 185.932 536.247, 185.932 546.247, 185.932 556.247, 185.932 566.247, 185.932 576.247, 185.932 586.247, 185.932 596.247, 185.932 606.247, 185.932 616.247, 185.932 626.247, 185.932 636.247, 185.932 646.247, 185.932 656.247, 185.932 666.247, 185.932 676.247, 185.932 686.247, 185.932 696.247, 185.932 706.247, 185.932 716.247, 185.932 726.247, 185.932 736.247, 185.932 746.247, 185.932 756.247, 185.932 766.247, 185.932 776.247, 185.932 786.247, 185.932 796.247, 185.932 807.925, 185.932 807.925, 175.932 807.925, 165.932 807.925, 155.932 807.925, 145.932 807.925, 135.932 807.925, 125.932 807.925, 115.932 807.925, 105.932 807.925, 95.932 807.925, 94.549 797.925, 94.549 787.925, 94.549 777.925, 94.549 767.925, 94.549 757.925, 94.549 747.925, 94.549 737.925, 94.549 727.925, 94.549 717.925, 94.549 707.925, 94.549 697.925, 94.549 687.925, 94.549 677.925, 94.549 667.925, 94.549 657.925, 94.549 647.925, 94.549 637.925, 94.549 627.925, 94.549 617.925, 94.549 607.925, 94.549 597.925, 94.549 587.925, 94.549 577.925, 94.549 567.925, 94.549 557.925, 94.549 547.925, 94.549 537.925, 94.549 527.925, 94.549 517.925, 94.549 507.925, 94.549 497.925, 94.549 486.247, 94.549 " fill="none" stroke="rgb(0, 0, 0)" stroke-linecap="butt" stroke-linejoin="round" stroke-opacity="1.0" stroke-width="3.0" />
        </g>
    </g>
</svg>
