<?xml version="1.0" standalone="no"?>
 <!DOCTYPE svg PUBLIC "-//W3C//DTD SVG 1.1//EN" 
 "http://www.w3.org/Graphics/SVG/1.1/DTD/svg11.dtd"> 
<svg xmlns="http://www.w3.org/2000/svg" version="1.1" 
    width="29.7002cm" height="21.0007cm" viewBox="0 0 116930 82680 ">
<title>SVG Picture created as EuW_Gripper_Controlboard-Cmts.User.svg date 2018/04/18 16:16:48 </title>
  <desc>Picture generated by PCBNEW </desc>
<g style="fill:#000000; fill-opacity:1;stroke:#000000; stroke-opacity:1;
stroke-linecap:round; stroke-linejoin:round; "
 transform="translate(0 0) scale(1 1)">
</g>
<g style="fill:#000000; fill-opacity:0.0; 
stroke:#000000; stroke-width:-0.000393701; stroke-opacity:1; 
stroke-linecap:round; stroke-linejoin:round;">
</g>
<g style="fill:#000000; fill-opacity:0.0; 
stroke:#000000; stroke-width:118.11; stroke-opacity:1; 
stroke-linecap:round; stroke-linejoin:round;">
<path d="M-60 15576
L-342 15576
L-370 15857
L-342 15829
L-285 15801
L-145 15801
L-88 15829
L-60 15857
L-32 15914
L-32 16054
L-60 16110
L-88 16139
L-145 16167
L-285 16167
L-342 16139
L-370 16110
" />
<path d="M136 15576
L332 16167
L529 15576
" />
<path d="M1176 16167
L1176 15576
L1373 15998
L1570 15576
L1570 16167
" />
<path d="M1935 16167
L1879 16139
L1851 16110
L1823 16054
L1823 15885
L1851 15829
L1879 15801
L1935 15773
L2020 15773
L2076 15801
L2104 15829
L2132 15885
L2132 16054
L2104 16110
L2076 16139
L2020 16167
L1935 16167
" />
<path d="M2301 15773
L2526 15773
" />
<path d="M2385 15576
L2385 16082
L2413 16139
L2470 16167
L2526 16167
" />
<path d="M4839 15576
L4557 15576
L4529 15857
L4557 15829
L4614 15801
L4754 15801
L4811 15829
L4839 15857
L4867 15914
L4867 16054
L4839 16110
L4811 16139
L4754 16167
L4614 16167
L4557 16139
L4529 16110
" />
<path d="M5036 15576
L5232 16167
L5429 15576
" />
<path d="M6076 16167
L6076 15576
L6273 15998
L6470 15576
L6470 16167
" />
<path d="M6835 16167
L6779 16139
L6751 16110
L6723 16054
L6723 15885
L6751 15829
L6779 15801
L6835 15773
L6920 15773
L6976 15801
L7004 15829
L7032 15885
L7032 16054
L7004 16110
L6976 16139
L6920 16167
L6835 16167
" />
<path d="M7201 15773
L7426 15773
" />
<path d="M7285 15576
L7285 16082
L7313 16139
L7370 16167
L7426 16167
" />
<path d="M1628 17098
L1909 17098
" />
<path d="M1571 17267
L1768 16676
L1965 17267
" />
<path d="M2274 16676
L2331 16676
L2387 16704
L2415 16732
L2443 16789
L2471 16901
L2471 17042
L2443 17154
L2415 17210
L2387 17239
L2331 17267
L2274 17267
L2218 17239
L2190 17210
L2162 17154
L2134 17042
L2134 16901
L2162 16789
L2190 16732
L2218 16704
L2274 16676
" />
<path d="M4528 17098
L4809 17098
" />
<path d="M4471 17267
L4668 16676
L4865 17267
" />
<path d="M5371 17267
L5034 17267
" />
<path d="M5203 17267
L5203 16676
L5146 16760
L5090 16817
L5034 16845
" />
<path d="M7467 26467
L7467 25876
" />
<path d="M7748 26073
L7748 26467
" />
<path d="M7748 26129
L7776 26101
L7833 26073
L7917 26073
L7973 26101
L8001 26157
L8001 26467
" />
<path d="M8198 26073
L8423 26073
" />
<path d="M8283 25876
L8283 26382
L8311 26439
L8367 26467
L8423 26467
" />
<path d="M8845 26439
L8789 26467
L8676 26467
L8620 26439
L8592 26382
L8592 26157
L8620 26101
L8676 26073
L8789 26073
L8845 26101
L8873 26157
L8873 26214
L8592 26270
" />
<path d="M9126 26467
L9126 26073
" />
<path d="M9126 26185
L9154 26129
L9182 26101
L9239 26073
L9295 26073
" />
<path d="M9492 26467
L9492 26073
" />
<path d="M9492 26185
L9520 26129
L9548 26101
L9604 26073
L9661 26073
" />
<path d="M9857 26467
L9857 26073
" />
<path d="M9857 26185
L9885 26129
L9914 26101
L9970 26073
L10026 26073
" />
<path d="M10476 26073
L10476 26467
" />
<path d="M10223 26073
L10223 26382
L10251 26439
L10307 26467
L10392 26467
L10448 26439
L10476 26410
" />
<path d="M10757 26073
L10757 26664
" />
<path d="M10757 26101
L10814 26073
L10926 26073
L10982 26101
L11010 26129
L11038 26185
L11038 26354
L11010 26410
L10982 26439
L10926 26467
L10814 26467
L10757 26439
" />
<path d="M11207 26073
L11432 26073
" />
<path d="M11292 25876
L11292 26382
L11320 26439
L11376 26467
L11432 26467
" />
<path d="M12079 26467
L12079 25876
" />
<path d="M12332 25932
L12360 25904
L12416 25876
L12557 25876
L12613 25904
L12641 25932
L12670 25989
L12670 26045
L12641 26129
L12304 26467
L12670 26467
" />
<path d="M13260 26410
L13232 26439
L13148 26467
L13091 26467
L13007 26439
L12951 26382
L12923 26326
L12894 26214
L12894 26129
L12923 26017
L12951 25960
L13007 25904
L13091 25876
L13148 25876
L13232 25904
L13260 25932
" />
<path d="M8232 25367
L8232 24776
L8373 24776
L8457 24804
L8514 24860
L8542 24917
L8570 25029
L8570 25114
L8542 25226
L8514 25282
L8457 25339
L8373 25367
L8232 25367
" />
<path d="M9132 25367
L8795 25367
" />
<path d="M8964 25367
L8964 24776
L8907 24860
L8851 24917
L8795 24945
" />
<path d="M9695 25367
L9357 25367
" />
<path d="M9526 25367
L9526 24776
L9470 24860
L9414 24917
L9357 24945
" />
<path d="M11628 25198
L11909 25198
" />
<path d="M11571 25367
L11768 24776
L11965 25367
" />
<path d="M12443 24776
L12162 24776
L12134 25057
L12162 25029
L12218 25001
L12359 25001
L12415 25029
L12443 25057
L12471 25114
L12471 25254
L12443 25310
L12415 25339
L12359 25367
L12218 25367
L12162 25339
L12134 25310
" />
<path d="M10228 25198
L10509 25198
" />
<path d="M10171 25367
L10368 24776
L10565 25367
" />
<path d="M11015 24973
L11015 25367
" />
<path d="M10874 24748
L10734 25170
L11099 25170
" />
<path d="M4428 18098
L4709 18098
" />
<path d="M4371 18267
L4568 17676
L4765 18267
" />
<path d="M5215 17873
L5215 18267
" />
<path d="M5074 17648
L4934 18070
L5299 18070
" />
<path d="M1628 18098
L1909 18098
" />
<path d="M1571 18267
L1768 17676
L1965 18267
" />
<path d="M2443 17676
L2162 17676
L2134 17957
L2162 17929
L2218 17901
L2359 17901
L2415 17929
L2443 17957
L2471 18014
L2471 18154
L2443 18210
L2415 18239
L2359 18267
L2218 18267
L2162 18239
L2134 18210
" />
<path d="M4682 18776
L4401 18776
L4373 19057
L4401 19029
L4457 19001
L4598 19001
L4654 19029
L4682 19057
L4711 19114
L4711 19254
L4682 19310
L4654 19339
L4598 19367
L4457 19367
L4401 19339
L4373 19310
" />
<path d="M4879 18776
L5076 19367
L5273 18776
" />
<path d="M6257 19310
L6229 19339
L6145 19367
L6089 19367
L6004 19339
L5948 19282
L5920 19226
L5892 19114
L5892 19029
L5920 18917
L5948 18860
L6004 18804
L6089 18776
L6145 18776
L6229 18804
L6257 18832
" />
<path d="M6595 19367
L6538 19339
L6510 19310
L6482 19254
L6482 19085
L6510 19029
L6538 19001
L6595 18973
L6679 18973
L6735 19001
L6763 19029
L6792 19085
L6792 19254
L6763 19310
L6735 19339
L6679 19367
L6595 19367
" />
<path d="M7045 18973
L7045 19367
" />
<path d="M7045 19029
L7073 19001
L7129 18973
L7213 18973
L7270 19001
L7298 19057
L7298 19367
" />
<path d="M-117 18776
L-398 18776
L-426 19057
L-398 19029
L-342 19001
L-201 19001
L-145 19029
L-117 19057
L-88 19114
L-88 19254
L-117 19310
L-145 19339
L-201 19367
L-342 19367
L-398 19339
L-426 19310
" />
<path d="M79 18776
L276 19367
L473 18776
" />
<path d="M1457 19310
L1429 19339
L1345 19367
L1289 19367
L1204 19339
L1148 19282
L1120 19226
L1092 19114
L1092 19029
L1120 18917
L1148 18860
L1204 18804
L1289 18776
L1345 18776
L1429 18804
L1457 18832
" />
<path d="M1795 19367
L1738 19339
L1710 19310
L1682 19254
L1682 19085
L1710 19029
L1738 19001
L1795 18973
L1879 18973
L1935 19001
L1963 19029
L1992 19085
L1992 19254
L1963 19310
L1935 19339
L1879 19367
L1795 19367
" />
<path d="M2245 18973
L2245 19367
" />
<path d="M2245 19029
L2273 19001
L2329 18973
L2413 18973
L2470 19001
L2498 19057
L2498 19367
" />
<path d="M1400 19904
L1343 19876
L1259 19876
L1175 19904
L1118 19960
L1090 20017
L1062 20129
L1062 20214
L1090 20326
L1118 20382
L1175 20439
L1259 20467
L1315 20467
L1400 20439
L1428 20410
L1428 20214
L1315 20214
" />
<path d="M1681 20467
L1681 19876
L2018 20467
L2018 19876
" />
<path d="M2299 20467
L2299 19876
L2440 19876
L2524 19904
L2581 19960
L2609 20017
L2637 20129
L2637 20214
L2609 20326
L2581 20382
L2524 20439
L2440 20467
L2299 20467
" />
<path d="M4700 19904
L4643 19876
L4559 19876
L4475 19904
L4418 19960
L4390 20017
L4362 20129
L4362 20214
L4390 20326
L4418 20382
L4475 20439
L4559 20467
L4615 20467
L4700 20439
L4728 20410
L4728 20214
L4615 20214
" />
<path d="M4981 20467
L4981 19876
L5318 20467
L5318 19876
" />
<path d="M5599 20467
L5599 19876
L5740 19876
L5824 19904
L5881 19960
L5909 20017
L5937 20129
L5937 20214
L5909 20326
L5881 20382
L5824 20439
L5740 20467
L5599 20467
" />
<path d="M18767 10267
L18767 9676
L18908 9676
L18992 9704
L19048 9760
L19077 9817
L19105 9929
L19105 10014
L19077 10126
L19048 10182
L18992 10239
L18908 10267
L18767 10267
" />
<path d="M19302 9676
L19695 9676
L19442 10267
" />
<path d="M20370 10042
L20820 10042
" />
<path d="M21101 9873
L21551 10042
L21101 10210
" />
<path d="M22282 10267
L22282 9676
" />
<path d="M22564 9873
L22564 10267
" />
<path d="M22564 9929
L22592 9901
L22648 9873
L22732 9873
L22789 9901
L22817 9957
L22817 10267
" />
<path d="M23098 9873
L23098 10464
" />
<path d="M23098 9901
L23154 9873
L23267 9873
L23323 9901
L23351 9929
L23379 9985
L23379 10154
L23351 10210
L23323 10239
L23267 10267
L23154 10267
L23098 10239
" />
<path d="M23885 9873
L23885 10267
" />
<path d="M23632 9873
L23632 10182
L23660 10239
L23717 10267
L23801 10267
L23857 10239
L23885 10210
" />
<path d="M24082 9873
L24307 9873
" />
<path d="M24167 9676
L24167 10182
L24195 10239
L24251 10267
L24307 10267
" />
<path d="M24926 10239
L25010 10267
L25151 10267
L25207 10239
L25235 10210
L25263 10154
L25263 10098
L25235 10042
L25207 10014
L25151 9985
L25038 9957
L24982 9929
L24954 9901
L24926 9845
L24926 9789
L24954 9732
L24982 9704
L25038 9676
L25179 9676
L25263 9704
" />
<path d="M25741 10239
L25685 10267
L25573 10267
L25516 10239
L25488 10182
L25488 9957
L25516 9901
L25573 9873
L25685 9873
L25741 9901
L25770 9957
L25770 10014
L25488 10070
" />
<path d="M26023 9873
L26023 10267
" />
<path d="M26023 9929
L26051 9901
L26107 9873
L26191 9873
L26248 9901
L26276 9957
L26276 10267
" />
<path d="M26529 10239
L26585 10267
L26698 10267
L26754 10239
L26782 10182
L26782 10154
L26754 10098
L26698 10070
L26613 10070
L26557 10042
L26529 9985
L26529 9957
L26557 9901
L26613 9873
L26698 9873
L26754 9901
" />
<path d="M27119 10267
L27063 10239
L27035 10210
L27007 10154
L27007 9985
L27035 9929
L27063 9901
L27119 9873
L27204 9873
L27260 9901
L27288 9929
L27316 9985
L27316 10154
L27288 10210
L27260 10239
L27204 10267
L27119 10267
" />
<path d="M27569 10267
L27569 9873
" />
<path d="M27569 9985
L27597 9929
L27626 9901
L27682 9873
L27738 9873
" />
<path d="M27907 10239
L27963 10267
L28075 10267
L28132 10239
L28160 10182
L28160 10154
L28132 10098
L28075 10070
L27991 10070
L27935 10042
L27907 9985
L27907 9957
L27935 9901
L27991 9873
L28075 9873
L28132 9901
" />
<path d="M24297 15067
L24297 14476
L24438 14476
L24522 14504
L24578 14560
L24606 14617
L24635 14729
L24635 14814
L24606 14926
L24578 14982
L24522 15039
L24438 15067
L24297 15067
" />
<path d="M24972 14729
L24916 14701
L24888 14673
L24860 14617
L24860 14589
L24888 14532
L24916 14504
L24972 14476
L25084 14476
L25141 14504
L25169 14532
L25197 14589
L25197 14617
L25169 14673
L25141 14701
L25084 14729
L24972 14729
L24916 14757
L24888 14785
L24860 14842
L24860 14954
L24888 15010
L24916 15039
L24972 15067
L25084 15067
L25141 15039
L25169 15010
L25197 14954
L25197 14842
L25169 14785
L25141 14757
L25084 14729
" />
<path d="M25900 14842
L26350 14842
" />
<path d="M26631 14673
L27081 14842
L26631 15010
" />
<path d="M28093 14476
L27812 14476
L27784 14757
L27812 14729
L27869 14701
L28009 14701
L28065 14729
L28093 14757
L28122 14814
L28122 14954
L28093 15010
L28065 15039
L28009 15067
L27869 15067
L27812 15039
L27784 15010
" />
<path d="M28318 14673
L28459 15067
L28600 14673
" />
<path d="M29246 15039
L29331 15067
L29471 15067
L29528 15039
L29556 15010
L29584 14954
L29584 14898
L29556 14842
L29528 14814
L29471 14785
L29359 14757
L29303 14729
L29275 14701
L29246 14645
L29246 14589
L29275 14532
L29303 14504
L29359 14476
L29500 14476
L29584 14504
" />
<path d="M30062 15039
L30006 15067
L29893 15067
L29837 15039
L29809 14982
L29809 14757
L29837 14701
L29893 14673
L30006 14673
L30062 14701
L30090 14757
L30090 14814
L29809 14870
" />
<path d="M30343 14673
L30343 15067
" />
<path d="M30343 14729
L30371 14701
L30428 14673
L30512 14673
L30568 14701
L30596 14757
L30596 15067
" />
<path d="M30849 15039
L30906 15067
L31018 15067
L31074 15039
L31102 14982
L31102 14954
L31074 14898
L31018 14870
L30934 14870
L30878 14842
L30849 14785
L30849 14757
L30878 14701
L30934 14673
L31018 14673
L31074 14701
" />
<path d="M31440 15067
L31384 15039
L31356 15010
L31327 14954
L31327 14785
L31356 14729
L31384 14701
L31440 14673
L31524 14673
L31581 14701
L31609 14729
L31637 14785
L31637 14954
L31609 15010
L31581 15039
L31524 15067
L31440 15067
" />
<path d="M31890 15067
L31890 14673
" />
<path d="M31890 14785
L31918 14729
L31946 14701
L32002 14673
L32059 14673
" />
<path d="M33015 14504
L32958 14476
L32874 14476
L32790 14504
L32734 14560
L32705 14617
L32677 14729
L32677 14814
L32705 14926
L32734 14982
L32790 15039
L32874 15067
L32930 15067
L33015 15039
L33043 15010
L33043 14814
L32930 14814
" />
<path d="M33296 15067
L33296 14673
" />
<path d="M33296 14785
L33324 14729
L33352 14701
L33408 14673
L33465 14673
" />
<path d="M33662 15067
L33662 14673
" />
<path d="M33662 14476
L33633 14504
L33662 14532
L33690 14504
L33662 14476
L33662 14532
" />
<path d="M33943 14673
L33943 15264
" />
<path d="M33943 14701
L33999 14673
L34111 14673
L34168 14701
L34196 14729
L34224 14785
L34224 14954
L34196 15010
L34168 15039
L34111 15067
L33999 15067
L33943 15039
" />
<path d="M34477 14673
L34477 15264
" />
<path d="M34477 14701
L34533 14673
L34646 14673
L34702 14701
L34730 14729
L34758 14785
L34758 14954
L34730 15010
L34702 15039
L34646 15067
L34533 15067
L34477 15039
" />
<path d="M35236 15039
L35180 15067
L35068 15067
L35011 15039
L34983 14982
L34983 14757
L35011 14701
L35068 14673
L35180 14673
L35236 14701
L35264 14757
L35264 14814
L34983 14870
" />
<path d="M35518 15067
L35518 14673
" />
<path d="M35518 14785
L35546 14729
L35574 14701
L35630 14673
L35686 14673
" />
<path d="M24110 12967
L24110 12376
L24250 12376
L24335 12404
L24391 12460
L24419 12517
L24447 12629
L24447 12714
L24419 12826
L24391 12882
L24335 12939
L24250 12967
L24110 12967
" />
<path d="M24728 12967
L24841 12967
L24897 12939
L24925 12910
L24981 12826
L25009 12714
L25009 12489
L24981 12432
L24953 12404
L24897 12376
L24784 12376
L24728 12404
L24700 12432
L24672 12489
L24672 12629
L24700 12685
L24728 12714
L24784 12742
L24897 12742
L24953 12714
L24981 12685
L25009 12629
" />
<path d="M25712 12742
L26162 12742
" />
<path d="M26444 12573
L26894 12742
L26444 12910
" />
<path d="M27456 12376
L27175 12376
L27147 12657
L27175 12629
L27231 12601
L27372 12601
L27428 12629
L27456 12657
L27484 12714
L27484 12854
L27456 12910
L27428 12939
L27372 12967
L27231 12967
L27175 12939
L27147 12910
" />
<path d="M27653 12376
L27850 12967
L28047 12376
" />
<path d="M28665 12939
L28750 12967
L28890 12967
L28946 12939
L28975 12910
L29003 12854
L29003 12798
L28975 12742
L28946 12714
L28890 12685
L28778 12657
L28721 12629
L28693 12601
L28665 12545
L28665 12489
L28693 12432
L28721 12404
L28778 12376
L28918 12376
L29003 12404
" />
<path d="M29481 12939
L29425 12967
L29312 12967
L29256 12939
L29228 12882
L29228 12657
L29256 12601
L29312 12573
L29425 12573
L29481 12601
L29509 12657
L29509 12714
L29228 12770
" />
<path d="M29762 12573
L29762 12967
" />
<path d="M29762 12629
L29790 12601
L29846 12573
L29931 12573
L29987 12601
L30015 12657
L30015 12967
" />
<path d="M30268 12939
L30324 12967
L30437 12967
L30493 12939
L30521 12882
L30521 12854
L30493 12798
L30437 12770
L30353 12770
L30296 12742
L30268 12685
L30268 12657
L30296 12601
L30353 12573
L30437 12573
L30493 12601
" />
<path d="M30859 12967
L30802 12939
L30774 12910
L30746 12854
L30746 12685
L30774 12629
L30802 12601
L30859 12573
L30943 12573
L30999 12601
L31027 12629
L31056 12685
L31056 12854
L31027 12910
L30999 12939
L30943 12967
L30859 12967
" />
<path d="M31309 12967
L31309 12573
" />
<path d="M31309 12685
L31337 12629
L31365 12601
L31421 12573
L31477 12573
" />
<path d="M32405 12967
L32124 12967
L32124 12376
" />
<path d="M32687 12967
L32630 12939
L32602 12910
L32574 12854
L32574 12685
L32602 12629
L32630 12601
L32687 12573
L32771 12573
L32827 12601
L32855 12629
L32883 12685
L32883 12854
L32855 12910
L32827 12939
L32771 12967
L32687 12967
" />
<path d="M33390 12939
L33333 12967
L33221 12967
L33165 12939
L33137 12910
L33108 12854
L33108 12685
L33137 12629
L33165 12601
L33221 12573
L33333 12573
L33390 12601
" />
<path d="M33643 12967
L33643 12376
" />
<path d="M33699 12742
L33868 12967
" />
<path d="M33868 12573
L33643 12798
" />
<path d="M34121 12967
L34121 12573
" />
<path d="M34121 12376
L34093 12404
L34121 12432
L34149 12404
L34121 12376
L34121 12432
" />
<path d="M34402 12573
L34402 12967
" />
<path d="M34402 12629
L34430 12601
L34486 12573
L34571 12573
L34627 12601
L34655 12657
L34655 12967
" />
<path d="M35189 12573
L35189 13051
L35161 13107
L35133 13135
L35077 13164
L34993 13164
L34936 13135
" />
<path d="M35189 12939
L35133 12967
L35021 12967
L34964 12939
L34936 12910
L34908 12854
L34908 12685
L34936 12629
L34964 12601
L35021 12573
L35133 12573
L35189 12601
" />
<path d="M25037 18876
L24756 18876
L24728 19157
L24756 19129
L24812 19101
L24953 19101
L25009 19129
L25037 19157
L25065 19214
L25065 19354
L25037 19410
L25009 19439
L24953 19467
L24812 19467
L24756 19439
L24728 19410
" />
<path d="M25234 18876
L25431 19467
L25628 18876
" />
<path d="M23997 17167
L23997 16576
L24137 16576
L24222 16604
L24278 16660
L24306 16717
L24334 16829
L24334 16914
L24306 17026
L24278 17082
L24222 17139
L24137 17167
L23997 17167
" />
<path d="M24868 16576
L24587 16576
L24559 16857
L24587 16829
L24643 16801
L24784 16801
L24840 16829
L24868 16857
L24897 16914
L24897 17054
L24868 17110
L24840 17139
L24784 17167
L24643 17167
L24587 17139
L24559 17110
" />
<path d="M25600 16942
L26050 16942
" />
<path d="M26331 16773
L26781 16942
L26331 17110
" />
<path d="M27512 17167
L27512 16576
" />
<path d="M28130 17167
L27934 16885
" />
<path d="M27793 17167
L27793 16576
L28018 16576
L28074 16604
L28102 16632
L28130 16689
L28130 16773
L28102 16829
L28074 16857
L28018 16885
L27793 16885
" />
<path d="M24614 23967
L24614 23376
L24754 23376
L24839 23404
L24895 23460
L24923 23517
L24951 23629
L24951 23714
L24923 23826
L24895 23882
L24839 23939
L24754 23967
L24614 23967
" />
<path d="M25176 23432
L25204 23404
L25260 23376
L25401 23376
L25457 23404
L25485 23432
L25514 23489
L25514 23545
L25485 23629
L25148 23967
L25514 23967
" />
<path d="M24614 22367
L24614 21776
L24754 21776
L24839 21804
L24895 21860
L24923 21917
L24951 22029
L24951 22114
L24923 22226
L24895 22282
L24839 22339
L24754 22367
L24614 22367
" />
<path d="M25148 21776
L25514 21776
L25317 22001
L25401 22001
L25457 22029
L25485 22057
L25514 22114
L25514 22254
L25485 22310
L25457 22339
L25401 22367
L25232 22367
L25176 22339
L25148 22310
" />
<path d="M24714 20967
L24714 20376
L24854 20376
L24939 20404
L24995 20460
L25023 20517
L25051 20629
L25051 20714
L25023 20826
L24995 20882
L24939 20939
L24854 20967
L24714 20967
" />
<path d="M25557 20573
L25557 20967
" />
<path d="M25417 20348
L25276 20770
L25642 20770
" />
</g> 
</svg>
