G04 #@! TF.FileFunction,Copper,L2,Bot,Signal*
%FSLAX46Y46*%
G04 Gerber Fmt 4.6, Leading zero omitted, Abs format (unit mm)*
G04 Created by KiCad (PCBNEW 4.0.6) date 04/17/17 15:34:42*
%MOMM*%
%LPD*%
G01*
G04 APERTURE LIST*
%ADD10C,0.100000*%
%ADD11R,1.800000X1.800000*%
%ADD12O,1.800000X1.800000*%
%ADD13R,1.700000X1.700000*%
%ADD14O,1.900000X1.900000*%
%ADD15C,1.800000*%
%ADD16C,2.000000*%
%ADD17O,2.000000X2.000000*%
%ADD18C,1.998980*%
%ADD19C,0.600000*%
%ADD20C,0.400000*%
%ADD21C,0.800000*%
G04 APERTURE END LIST*
D10*
D11*
X167726360Y-105084880D03*
D12*
X170266360Y-105084880D03*
X172806360Y-105084880D03*
D13*
X160705800Y-105232200D03*
D14*
X158165800Y-105232200D03*
D13*
X163281360Y-99689920D03*
D14*
X160741360Y-99689920D03*
X158201360Y-99689920D03*
D13*
X163337240Y-92202000D03*
D14*
X160797240Y-92202000D03*
X158257240Y-92202000D03*
D13*
X160878520Y-87147400D03*
D14*
X158338520Y-87147400D03*
D13*
X174401480Y-89966800D03*
D14*
X176941480Y-89966800D03*
X174401480Y-92506800D03*
X176941480Y-92506800D03*
X174401480Y-95046800D03*
X176941480Y-95046800D03*
X174401480Y-97586800D03*
X176941480Y-97586800D03*
X174401480Y-100126800D03*
X176941480Y-100126800D03*
D15*
X168310560Y-95869760D03*
D12*
X168310560Y-100949760D03*
D16*
X168290240Y-93116400D03*
D17*
X168290240Y-85496400D03*
D18*
X175412400Y-86715600D03*
X160238440Y-95890080D03*
X163840160Y-95864680D03*
X176916080Y-105084880D03*
D19*
X176946560Y-105084880D03*
X175463200Y-86700360D03*
X160279080Y-95773240D03*
D20*
X167726360Y-105084880D02*
X167726360Y-100970080D01*
X167726360Y-100970080D02*
X168310560Y-100949760D01*
D21*
X170266360Y-105084880D02*
X170266360Y-106715560D01*
X163565840Y-107635040D02*
X161163000Y-105232200D01*
X169346880Y-107635040D02*
X163565840Y-107635040D01*
X170266360Y-106715560D02*
X169346880Y-107635040D01*
X161163000Y-105232200D02*
X160705800Y-105232200D01*
X168290240Y-93116400D02*
X166588440Y-93116400D01*
X166588440Y-93116400D02*
X163840160Y-95864680D01*
X163840160Y-95864680D02*
X163840160Y-99131120D01*
X163840160Y-99131120D02*
X163281360Y-99689920D01*
X163840160Y-95864680D02*
X163840160Y-92704920D01*
X163840160Y-92704920D02*
X163337240Y-92202000D01*
X163337240Y-99634040D02*
X163281360Y-99689920D01*
X176946560Y-105084880D02*
X172806360Y-105084880D01*
X176941480Y-100126800D02*
X176941480Y-105079800D01*
X176941480Y-105079800D02*
X176946560Y-105084880D01*
X163337240Y-99634040D02*
X163281360Y-99689920D01*
X163271200Y-99710240D02*
X163271200Y-99395280D01*
X176941480Y-97586800D02*
X176941480Y-100126800D01*
X176941480Y-95046800D02*
X176941480Y-97586800D01*
X158165800Y-105232200D02*
X158079440Y-105232200D01*
X158079440Y-105232200D02*
X155488640Y-102641400D01*
X157393640Y-95783400D02*
X160279080Y-95773240D01*
X155488640Y-97688400D02*
X157393640Y-95783400D01*
X155488640Y-102641400D02*
X155488640Y-97688400D01*
X160741360Y-99689920D02*
X160274000Y-95778320D01*
X160274000Y-95778320D02*
X160279080Y-95773240D01*
X176941480Y-89966800D02*
X176941480Y-88178640D01*
X176941480Y-88178640D02*
X175463200Y-86700360D01*
X160329880Y-95722440D02*
X160797240Y-92202000D01*
X160279080Y-95773240D02*
X160329880Y-95722440D01*
X160797240Y-99634040D02*
X160741360Y-99689920D01*
X158165800Y-105232200D02*
X158165800Y-105049320D01*
X160797240Y-99634040D02*
X160741360Y-99689920D01*
X160731200Y-92029280D02*
X160655000Y-91953080D01*
X176941480Y-89966800D02*
X176941480Y-92506800D01*
D20*
X171932600Y-100126800D02*
X171932600Y-100045520D01*
X174401480Y-100126800D02*
X171932600Y-100126800D01*
X170378120Y-98491040D02*
X167055800Y-98491040D01*
X171932600Y-100045520D02*
X170378120Y-98491040D01*
X158201360Y-99689920D02*
X158201360Y-101483160D01*
X166019480Y-99527360D02*
X167055800Y-98491040D01*
X167055800Y-98491040D02*
X167167560Y-98379280D01*
X166019480Y-101427280D02*
X166019480Y-99527360D01*
X164739320Y-102707440D02*
X166019480Y-101427280D01*
X159425640Y-102707440D02*
X164739320Y-102707440D01*
X158201360Y-101483160D02*
X159425640Y-102707440D01*
X158115000Y-99634040D02*
X158191200Y-99710240D01*
X158257240Y-92202000D02*
X158257240Y-90581480D01*
X172999400Y-95046800D02*
X174401480Y-95046800D01*
X167640000Y-89687400D02*
X172999400Y-95046800D01*
X159151320Y-89687400D02*
X167640000Y-89687400D01*
X158257240Y-90581480D02*
X159151320Y-89687400D01*
X158257240Y-92202000D02*
X158257240Y-91526360D01*
X160878520Y-87147400D02*
X166441120Y-87147400D01*
X173390560Y-92506800D02*
X174401480Y-92506800D01*
X168925240Y-88041480D02*
X173390560Y-92506800D01*
X167335200Y-88041480D02*
X168925240Y-88041480D01*
X166441120Y-87147400D02*
X167335200Y-88041480D01*
X158338520Y-87147400D02*
X158338520Y-85831680D01*
X167650160Y-84856320D02*
X168290240Y-85496400D01*
X159313880Y-84856320D02*
X167650160Y-84856320D01*
X158338520Y-85831680D02*
X159313880Y-84856320D01*
X168290240Y-85496400D02*
X169931080Y-85496400D01*
X169931080Y-85496400D02*
X174401480Y-89966800D01*
X168310560Y-95869760D02*
X171028360Y-95869760D01*
X172745400Y-97586800D02*
X174401480Y-97586800D01*
X171028360Y-95869760D02*
X172745400Y-97586800D01*
D21*
G36*
X155423369Y-105828820D02*
X155532743Y-106378683D01*
X156150546Y-107303289D01*
X157075152Y-107921092D01*
X158165800Y-108138035D01*
X159256448Y-107921092D01*
X159282911Y-107903410D01*
X159855800Y-108019423D01*
X160697531Y-108019423D01*
X161593095Y-108914987D01*
X154325169Y-108916440D01*
X154337351Y-104742803D01*
X155423369Y-105828820D01*
X155423369Y-105828820D01*
G37*
X155423369Y-105828820D02*
X155532743Y-106378683D01*
X156150546Y-107303289D01*
X157075152Y-107921092D01*
X158165800Y-108138035D01*
X159256448Y-107921092D01*
X159282911Y-107903410D01*
X159855800Y-108019423D01*
X160697531Y-108019423D01*
X161593095Y-108914987D01*
X154325169Y-108916440D01*
X154337351Y-104742803D01*
X155423369Y-105828820D01*
G36*
X178939863Y-108911520D02*
X171321569Y-108913043D01*
X171892706Y-108341906D01*
X172263006Y-107787712D01*
X172751505Y-107884880D01*
X172861215Y-107884880D01*
X173932729Y-107671743D01*
X174362049Y-107384880D01*
X175115146Y-107384880D01*
X175260146Y-107530133D01*
X175260310Y-107533981D01*
X175266648Y-107536647D01*
X175271507Y-107541514D01*
X175798124Y-107760185D01*
X176323579Y-107981190D01*
X176330454Y-107981227D01*
X176336806Y-107983865D01*
X176907205Y-107984363D01*
X177477050Y-107987461D01*
X177483413Y-107984866D01*
X177490294Y-107984872D01*
X178017480Y-107767043D01*
X178545119Y-107551842D01*
X178556159Y-107544465D01*
X178556363Y-107544381D01*
X178556520Y-107544224D01*
X178571850Y-107533981D01*
X178572075Y-107528696D01*
X178942596Y-107158821D01*
X178939863Y-108911520D01*
X178939863Y-108911520D01*
G37*
X178939863Y-108911520D02*
X171321569Y-108913043D01*
X171892706Y-108341906D01*
X172263006Y-107787712D01*
X172751505Y-107884880D01*
X172861215Y-107884880D01*
X173932729Y-107671743D01*
X174362049Y-107384880D01*
X175115146Y-107384880D01*
X175260146Y-107530133D01*
X175260310Y-107533981D01*
X175266648Y-107536647D01*
X175271507Y-107541514D01*
X175798124Y-107760185D01*
X176323579Y-107981190D01*
X176330454Y-107981227D01*
X176336806Y-107983865D01*
X176907205Y-107984363D01*
X177477050Y-107987461D01*
X177483413Y-107984866D01*
X177490294Y-107984872D01*
X178017480Y-107767043D01*
X178545119Y-107551842D01*
X178556159Y-107544465D01*
X178556363Y-107544381D01*
X178556520Y-107544224D01*
X178571850Y-107533981D01*
X178572075Y-107528696D01*
X178942596Y-107158821D01*
X178939863Y-108911520D01*
G36*
X164889137Y-105335040D02*
X164518532Y-105335040D01*
X163990932Y-104807440D01*
X164739320Y-104807440D01*
X164889137Y-104777640D01*
X164889137Y-105335040D01*
X164889137Y-105335040D01*
G37*
X164889137Y-105335040D02*
X164518532Y-105335040D01*
X163990932Y-104807440D01*
X164739320Y-104807440D01*
X164889137Y-104777640D01*
X164889137Y-105335040D01*
G36*
X171128965Y-102066947D02*
X171932600Y-102226800D01*
X172457222Y-102226800D01*
X172591714Y-102316664D01*
X171679991Y-102498017D01*
X171536360Y-102593988D01*
X171392729Y-102498017D01*
X170706705Y-102361559D01*
X170897423Y-102076129D01*
X170926199Y-101931463D01*
X171128965Y-102066947D01*
X171128965Y-102066947D01*
G37*
X171128965Y-102066947D02*
X171932600Y-102226800D01*
X172457222Y-102226800D01*
X172591714Y-102316664D01*
X171679991Y-102498017D01*
X171536360Y-102593988D01*
X171392729Y-102498017D01*
X170706705Y-102361559D01*
X170897423Y-102076129D01*
X170926199Y-101931463D01*
X171128965Y-102066947D01*
G36*
X157584928Y-83615424D02*
X156853596Y-84346756D01*
X156400689Y-85024578D01*
X156323266Y-85076311D01*
X155705463Y-86000917D01*
X155488520Y-87091565D01*
X155488520Y-87203235D01*
X155705463Y-88293883D01*
X156323266Y-89218489D01*
X156577387Y-89388288D01*
X156317093Y-89777845D01*
X156247611Y-90127152D01*
X156241986Y-90130911D01*
X155624183Y-91055517D01*
X155407240Y-92146165D01*
X155407240Y-92257835D01*
X155624183Y-93348483D01*
X156041867Y-93973591D01*
X155767295Y-94157054D01*
X154364154Y-95560194D01*
X154399032Y-83610960D01*
X157584928Y-83615424D01*
X157584928Y-83615424D01*
G37*
X157584928Y-83615424D02*
X156853596Y-84346756D01*
X156400689Y-85024578D01*
X156323266Y-85076311D01*
X155705463Y-86000917D01*
X155488520Y-87091565D01*
X155488520Y-87203235D01*
X155705463Y-88293883D01*
X156323266Y-89218489D01*
X156577387Y-89388288D01*
X156317093Y-89777845D01*
X156247611Y-90127152D01*
X156241986Y-90130911D01*
X155624183Y-91055517D01*
X155407240Y-92146165D01*
X155407240Y-92257835D01*
X155624183Y-93348483D01*
X156041867Y-93973591D01*
X155767295Y-94157054D01*
X154364154Y-95560194D01*
X154399032Y-83610960D01*
X157584928Y-83615424D01*
G36*
X178979256Y-83645399D02*
X178973777Y-87159843D01*
X178837787Y-86956320D01*
X178567826Y-86552294D01*
X178567823Y-86552292D01*
X178314198Y-86298667D01*
X178314981Y-86154630D01*
X178312386Y-86148267D01*
X178312392Y-86141386D01*
X178094563Y-85614200D01*
X177879362Y-85086561D01*
X177871985Y-85075521D01*
X177871901Y-85075317D01*
X177871744Y-85075160D01*
X177861501Y-85059830D01*
X177856216Y-85059605D01*
X177068334Y-84270347D01*
X177068170Y-84266499D01*
X177061832Y-84263833D01*
X177056973Y-84258966D01*
X176530356Y-84040295D01*
X176004901Y-83819290D01*
X175998026Y-83819253D01*
X175991674Y-83816615D01*
X175421275Y-83816117D01*
X174851430Y-83813019D01*
X174845067Y-83815614D01*
X174838186Y-83815608D01*
X174311000Y-84033437D01*
X173783361Y-84248638D01*
X173772321Y-84256015D01*
X173772117Y-84256099D01*
X173771960Y-84256256D01*
X173756630Y-84266499D01*
X173756405Y-84271784D01*
X172967147Y-85059666D01*
X172963299Y-85059830D01*
X172960633Y-85066168D01*
X172955766Y-85071027D01*
X172814870Y-85410342D01*
X171416004Y-84011476D01*
X170851088Y-83634011D01*
X178979256Y-83645399D01*
X178979256Y-83645399D01*
G37*
X178979256Y-83645399D02*
X178973777Y-87159843D01*
X178837787Y-86956320D01*
X178567826Y-86552294D01*
X178567823Y-86552292D01*
X178314198Y-86298667D01*
X178314981Y-86154630D01*
X178312386Y-86148267D01*
X178312392Y-86141386D01*
X178094563Y-85614200D01*
X177879362Y-85086561D01*
X177871985Y-85075521D01*
X177871901Y-85075317D01*
X177871744Y-85075160D01*
X177861501Y-85059830D01*
X177856216Y-85059605D01*
X177068334Y-84270347D01*
X177068170Y-84266499D01*
X177061832Y-84263833D01*
X177056973Y-84258966D01*
X176530356Y-84040295D01*
X176004901Y-83819290D01*
X175998026Y-83819253D01*
X175991674Y-83816615D01*
X175421275Y-83816117D01*
X174851430Y-83813019D01*
X174845067Y-83815614D01*
X174838186Y-83815608D01*
X174311000Y-84033437D01*
X173783361Y-84248638D01*
X173772321Y-84256015D01*
X173772117Y-84256099D01*
X173771960Y-84256256D01*
X173756630Y-84266499D01*
X173756405Y-84271784D01*
X172967147Y-85059666D01*
X172963299Y-85059830D01*
X172960633Y-85066168D01*
X172955766Y-85071027D01*
X172814870Y-85410342D01*
X171416004Y-84011476D01*
X170851088Y-83634011D01*
X178979256Y-83645399D01*
M02*
