<?xml version="1.0" standalone="no"?>
 <!DOCTYPE svg PUBLIC "-//W3C//DTD SVG 1.1//EN" 
 "http://www.w3.org/Graphics/SVG/1.1/DTD/svg11.dtd"> 
<svg xmlns="http://www.w3.org/2000/svg" version="1.1" 
    width="2.31394cm" height="2.37236cm" viewBox="0 0 9110 9340 ">
<title>SVG Picture created as EuWCamlightning-F.Cu.svg date 2018/01/23 22:43:21 </title>
  <desc>Picture generated by PCBNEW </desc>
<g style="fill:#000000; fill-opacity:1;stroke:#000000; stroke-opacity:1;
stroke-linecap:round; stroke-linejoin:round; "
 transform="translate(0 0) scale(1 1)">
</g>
<g style="fill:#000000; fill-opacity:0.0; 
stroke:#000000; stroke-width:-0.000393701; stroke-opacity:1; 
stroke-linecap:round; stroke-linejoin:round;">
</g>
<g style="fill:#000000; fill-opacity:0.0; 
stroke:#000000; stroke-width:59.0551; stroke-opacity:1; 
stroke-linecap:round; stroke-linejoin:round;">
<path d="M6521 2726
L2584 2726
" />
<path d="M6521 2726
L6521 6664
" />
<path d="M2584 2726
L2584 6664
" />
<path d="M2584 6664
L6521 6664
" />
<path d="M9080 167
L25 167
" />
<path d="M25 167
L25 9223
" />
<path d="M9080 9223
L25 9223
" />
<path d="M9080 167
L9080 9223
" />
</g>
<g style="fill:#000000; fill-opacity:0.0; 
stroke:#000000; stroke-width:0; stroke-opacity:1; 
stroke-linecap:round; stroke-linejoin:round;">
</g>
<g style="fill:#000000; fill-opacity:1.0; 
stroke:#000000; stroke-width:0; stroke-opacity:1; 
stroke-linecap:round; stroke-linejoin:round;">
<polyline style="fill-rule:evenodd;"
points="6412,1401
6412,889
5821,889
5821,1401
6412,1401
" /> 
<polyline style="fill-rule:evenodd;"
points="5349,1401
5349,889
4758,889
4758,1401
5349,1401
" /> 
<polyline style="fill-rule:evenodd;"
points="7625,2809
7113,2809
7113,3399
7625,3399
7625,2809
" /> 
<polyline style="fill-rule:evenodd;"
points="7625,3872
7113,3872
7113,4462
7625,4462
7625,3872
" /> 
<polyline style="fill-rule:evenodd;"
points="1961,2769
1449,2769
1449,3359
1961,3359
1961,2769
" /> 
<polyline style="fill-rule:evenodd;"
points="1961,3832
1449,3832
1449,4422
1961,4422
1961,3832
" /> 
<polyline style="fill-rule:evenodd;"
points="6532,8407
6532,7895
5941,7895
5941,8407
6532,8407
" /> 
<polyline style="fill-rule:evenodd;"
points="5469,8407
5469,7895
4878,7895
4878,8407
5469,8407
" /> 
<polyline style="fill-rule:evenodd;"
points="4252,1387
4252,875
3661,875
3661,1387
4252,1387
" /> 
<polyline style="fill-rule:evenodd;"
points="3189,1387
3189,875
2598,875
2598,1387
3189,1387
" /> 
<polyline style="fill-rule:evenodd;"
points="7655,4969
7143,4969
7143,5559
7655,5559
7655,4969
" /> 
<polyline style="fill-rule:evenodd;"
points="7655,6032
7143,6032
7143,6622
7655,6622
7655,6032
" /> 
<polyline style="fill-rule:evenodd;"
points="1951,4891
1439,4891
1439,5481
1951,5481
1951,4891
" /> 
<polyline style="fill-rule:evenodd;"
points="1951,5954
1439,5954
1439,6544
1951,6544
1951,5954
" /> 
<polyline style="fill-rule:evenodd;"
points="4312,8377
4312,7865
3721,7865
3721,8377
4312,8377
" /> 
<polyline style="fill-rule:evenodd;"
points="3249,8377
3249,7865
2658,7865
2658,8377
3249,8377
" /> 
</g>
<g style="fill:#000000; fill-opacity:1.0; 
stroke:#000000; stroke-width:157.48; stroke-opacity:1; 
stroke-linecap:round; stroke-linejoin:round;">
</g>
<g style="fill:#000000; fill-opacity:0.0; 
stroke:#000000; stroke-width:157.48; stroke-opacity:1; 
stroke-linecap:round; stroke-linejoin:round;">
<path d="M8487 6973
L8487 8097
" />
<path d="M8487 8097
L7879 8705
" />
<path d="M7369 3104
L7978 3104
" />
<path d="M7309 8151
L6237 8151
" />
<path d="M8525 6935
L8487 6973
" />
<path d="M8487 6973
L7309 8151
" />
<path d="M8525 3651
L8525 6935
" />
<path d="M7978 3104
L8525 3651
" />
<path d="M1705 3064
L1705 2705
" />
<path d="M6497 2231
L7369 3104
" />
<path d="M2179 2231
L6497 2231
" />
<path d="M1705 2705
L2179 2231
" />
<path d="M6117 1145
L6649 1145
" />
<path d="M7369 1865
L7369 3104
" />
<path d="M6649 1145
L7369 1865
" />
<path d="M1705 4127
L1705 5176
" />
<path d="M1705 5176
L1695 5186
" />
<path d="M2098 7265
L2098 7303
" />
<path d="M1189 8211
L1189 8795
" />
<path d="M2098 7303
L1189 8211
" />
<path d="M2894 1131
L1729 1131
" />
<path d="M769 7265
L2098 7265
" />
<path d="M485 6981
L769 7265
" />
<path d="M485 2375
L485 6981
" />
<path d="M1729 1131
L485 2375
" />
<path d="M7399 6327
L7399 6637
" />
<path d="M6771 7265
L2098 7265
" />
<path d="M7399 6637
L6771 7265
" />
<path d="M1695 6249
L1695 6863
" />
<path d="M1695 6863
L2098 7265
" />
<path d="M2098 7265
L2954 8121
" />
</g>
<g style="fill:#FFFFFF; fill-opacity:0.0; 
stroke:#FFFFFF; stroke-width:157.48; stroke-opacity:1; 
stroke-linecap:round; stroke-linejoin:round;">
</g>
<g style="fill:#000000; fill-opacity:0.0; 
stroke:#000000; stroke-width:157.48; stroke-opacity:1; 
stroke-linecap:round; stroke-linejoin:round;">
</g> 
</svg>
