G04 #@! TF.FileFunction,Copper,L1,Top,Signal*
%FSLAX46Y46*%
G04 Gerber Fmt 4.6, Leading zero omitted, Abs format (unit mm)*
G04 Created by KiCad (PCBNEW 4.0.6) date 03/08/18 17:50:37*
%MOMM*%
%LPD*%
G01*
G04 APERTURE LIST*
%ADD10C,0.100000*%
%ADD11C,1.524000*%
%ADD12C,1.500000*%
%ADD13R,1.600000X1.600000*%
%ADD14C,1.600000*%
%ADD15R,1.700000X1.700000*%
%ADD16O,1.700000X1.700000*%
%ADD17R,1.000000X2.500000*%
%ADD18R,2.000000X4.000000*%
%ADD19R,1.700000X2.000000*%
%ADD20C,0.250000*%
G04 APERTURE END LIST*
D10*
D11*
X197901560Y-123906280D03*
X197901560Y-121366280D03*
X197901560Y-118826280D03*
X197901560Y-116286280D03*
X197901560Y-113746280D03*
X197901560Y-111206280D03*
X197901560Y-108666280D03*
X197901560Y-106126280D03*
X197901560Y-103586280D03*
X197901560Y-101046280D03*
X197901560Y-98506280D03*
X197901560Y-95966280D03*
X182661560Y-123906280D03*
X182661560Y-121366280D03*
X182661560Y-118826280D03*
X182661560Y-116286280D03*
X182661560Y-113746280D03*
X182661560Y-111206280D03*
X182661560Y-108666280D03*
X182661560Y-106126280D03*
X182661560Y-103586280D03*
X182661560Y-101046280D03*
X182661560Y-98506280D03*
X182661560Y-95966280D03*
D12*
X185582560Y-115143280D03*
X185582560Y-112603280D03*
X185582560Y-104729280D03*
X185582560Y-102189280D03*
D13*
X175630840Y-98516440D03*
D14*
X178130840Y-98516440D03*
D15*
X178145440Y-115671600D03*
D16*
X175605440Y-115671600D03*
X178145440Y-113131600D03*
X175605440Y-113131600D03*
X178145440Y-110591600D03*
X175605440Y-110591600D03*
X178145440Y-108051600D03*
X175605440Y-108051600D03*
X178145440Y-105511600D03*
X175605440Y-105511600D03*
D15*
X203530200Y-107254040D03*
D16*
X206070200Y-107254040D03*
D15*
X175493680Y-123860560D03*
D16*
X178033680Y-123860560D03*
D15*
X206253080Y-101813360D03*
D16*
X203713080Y-101813360D03*
D15*
X206253080Y-96784160D03*
D16*
X203713080Y-96784160D03*
D15*
X208483200Y-112435640D03*
D16*
X205943200Y-112435640D03*
X203403200Y-112435640D03*
D15*
X208407000Y-117388640D03*
D16*
X205867000Y-117388640D03*
X203327000Y-117388640D03*
D15*
X208371440Y-122189240D03*
D16*
X205831440Y-122189240D03*
X203291440Y-122189240D03*
D17*
X190168400Y-117260440D03*
X191668400Y-117260440D03*
X193168400Y-117260440D03*
D18*
X191668400Y-113300440D03*
D10*
G36*
X192668400Y-115275440D02*
X192168400Y-116025440D01*
X191168400Y-116025440D01*
X190668400Y-115275440D01*
X192668400Y-115275440D01*
X192668400Y-115275440D01*
G37*
D19*
X191795400Y-107308400D03*
X191795400Y-103308400D03*
X191871600Y-96221800D03*
X191871600Y-100221800D03*
X194767200Y-100262440D03*
X194767200Y-96262440D03*
D20*
X203738480Y-122991880D02*
X203794360Y-123047760D01*
X192838200Y-107868840D02*
X192826640Y-107880400D01*
X192838200Y-107868840D02*
X192826640Y-107880400D01*
X175630840Y-98516440D02*
X175630840Y-96174560D01*
X209209640Y-104114600D02*
X206070200Y-107254040D01*
X209209640Y-95255080D02*
X209209640Y-104114600D01*
X206578200Y-92623640D02*
X209209640Y-95255080D01*
X179181760Y-92623640D02*
X206578200Y-92623640D01*
X175630840Y-96174560D02*
X179181760Y-92623640D01*
X206070200Y-107254040D02*
X206070200Y-112308640D01*
X206070200Y-112308640D02*
X205943200Y-112435640D01*
X205867000Y-117388640D02*
X205867000Y-122153680D01*
X205867000Y-122153680D02*
X205831440Y-122189240D01*
X205943200Y-112435640D02*
X205943200Y-117312440D01*
X205943200Y-117312440D02*
X205867000Y-117388640D01*
X205943200Y-117312440D02*
X205831440Y-117424200D01*
X205831440Y-117424200D02*
X205831440Y-122189240D01*
X175605440Y-105511600D02*
X175605440Y-98541840D01*
X175605440Y-98541840D02*
X175630840Y-98516440D01*
X178145440Y-105511600D02*
X175605440Y-105511600D01*
X191871600Y-96221800D02*
X190290200Y-96221800D01*
X187111640Y-116916200D02*
X182661560Y-121366280D01*
X187111640Y-110525560D02*
X187111640Y-116916200D01*
X187797440Y-109839760D02*
X187111640Y-110525560D01*
X187797440Y-98714560D02*
X187797440Y-109839760D01*
X190290200Y-96221800D02*
X187797440Y-98714560D01*
X193168400Y-117260440D02*
X193168400Y-120547000D01*
X193168400Y-120547000D02*
X192242440Y-121472960D01*
X182661560Y-121366280D02*
X192135760Y-121366280D01*
X192135760Y-121366280D02*
X192242440Y-121472960D01*
X205023720Y-125536960D02*
X208371440Y-122189240D01*
X192242440Y-121472960D02*
X196306440Y-125536960D01*
X196306440Y-125536960D02*
X205023720Y-125536960D01*
X193168400Y-117260440D02*
X196927400Y-117260440D01*
X196927400Y-117260440D02*
X197901560Y-116286280D01*
X182661560Y-121366280D02*
X182900320Y-121366280D01*
X194767200Y-96262440D02*
X191912240Y-96262440D01*
X191912240Y-96262440D02*
X191871600Y-96221800D01*
X178130840Y-98516440D02*
X178130840Y-96118040D01*
X189756800Y-94107000D02*
X191871600Y-96221800D01*
X180141880Y-94107000D02*
X189756800Y-94107000D01*
X178130840Y-96118040D02*
X180141880Y-94107000D01*
X178145440Y-113131600D02*
X179044600Y-113131600D01*
X179044600Y-113131600D02*
X180436520Y-114523520D01*
X180436520Y-114523520D02*
X180436520Y-119141240D01*
X180436520Y-119141240D02*
X182661560Y-121366280D01*
X175605440Y-113131600D02*
X178145440Y-113131600D01*
X208407000Y-117388640D02*
X208407000Y-122153680D01*
X208407000Y-122153680D02*
X208371440Y-122189240D01*
X208483200Y-112435640D02*
X208483200Y-117312440D01*
X208483200Y-117312440D02*
X208407000Y-117388640D01*
X208483200Y-117312440D02*
X208371440Y-117424200D01*
X178145440Y-115671600D02*
X178145440Y-119390160D01*
X178145440Y-119390160D02*
X182661560Y-123906280D01*
X175605440Y-115671600D02*
X178145440Y-115671600D01*
X175605440Y-110591600D02*
X174985680Y-110591600D01*
X174985680Y-110591600D02*
X173507400Y-112069880D01*
X178033680Y-122016520D02*
X178033680Y-123860560D01*
X177220880Y-121203720D02*
X178033680Y-122016520D01*
X176326800Y-121203720D02*
X177220880Y-121203720D01*
X173507400Y-118384320D02*
X176326800Y-121203720D01*
X173507400Y-112069880D02*
X173507400Y-118384320D01*
X178145440Y-110591600D02*
X179506880Y-110591600D01*
X179506880Y-110591600D02*
X182661560Y-113746280D01*
X175605440Y-110591600D02*
X178145440Y-110591600D01*
X175605440Y-108051600D02*
X175315880Y-108051600D01*
X175315880Y-108051600D02*
X172445680Y-110921800D01*
X172445680Y-120812560D02*
X175493680Y-123860560D01*
X172445680Y-110921800D02*
X172445680Y-120812560D01*
X178145440Y-108051600D02*
X179506880Y-108051600D01*
X179506880Y-108051600D02*
X182661560Y-111206280D01*
X175605440Y-108051600D02*
X178145440Y-108051600D01*
X191668400Y-113300440D02*
X195467040Y-113300440D01*
X198211440Y-112572800D02*
X203530200Y-107254040D01*
X196194680Y-112572800D02*
X198211440Y-112572800D01*
X195467040Y-113300440D02*
X196194680Y-112572800D01*
X191668400Y-113300440D02*
X191668400Y-117260440D01*
X191414400Y-117161240D02*
X191530040Y-117161240D01*
X194767200Y-100262440D02*
X194767200Y-103291640D01*
X203215240Y-104851200D02*
X206253080Y-101813360D01*
X196326760Y-104851200D02*
X203215240Y-104851200D01*
X194767200Y-103291640D02*
X196326760Y-104851200D01*
X203713080Y-101813360D02*
X203570840Y-101813360D01*
X203570840Y-101813360D02*
X200263760Y-98506280D01*
X200263760Y-98506280D02*
X197901560Y-98506280D01*
X197901560Y-95966280D02*
X202895200Y-95966280D01*
X202895200Y-95966280D02*
X203713080Y-96784160D01*
X197901560Y-113746280D02*
X202092560Y-113746280D01*
X202092560Y-113746280D02*
X203403200Y-112435640D01*
X197901560Y-118826280D02*
X201889360Y-118826280D01*
X201889360Y-118826280D02*
X203327000Y-117388640D01*
X203626720Y-117515640D02*
X203738480Y-117627400D01*
X197901560Y-121366280D02*
X202468480Y-121366280D01*
X202468480Y-121366280D02*
X203291440Y-122189240D01*
X190168400Y-117260440D02*
X188675080Y-117260440D01*
X188010800Y-111093000D02*
X191795400Y-107308400D01*
X188010800Y-116596160D02*
X188010800Y-111093000D01*
X188675080Y-117260440D02*
X188010800Y-116596160D01*
X191795400Y-103308400D02*
X192884040Y-103308400D01*
X196062600Y-109367320D02*
X197901560Y-111206280D01*
X196062600Y-106486960D02*
X196062600Y-109367320D01*
X192884040Y-103308400D02*
X196062600Y-106486960D01*
X191871600Y-100221800D02*
X191871600Y-103232200D01*
X191871600Y-103232200D02*
X191795400Y-103308400D01*
M02*
